<svg xmlns="http://www.w3.org/2000/svg" width="88.165" height="85.425" viewBox="0 0 88.165 85.425"><radialGradient id="a" cx="-422.937" cy="-161.759" r="26.711" gradientTransform="rotate(-36.575 127.903 -764.361)" gradientUnits="userSpaceOnUse"><stop offset=".46" stop-color="#ccedfe"/><stop offset="1" stop-color="#21ace7"/></radialGradient><circle opacity=".7" fill="url(#a)" cx="44.62" cy="47.809" r="26.711"/><path fill="#FFF" d="M26.186 59.467s-12.289-16.778 6.098-28.284c0 .001-11.758 13.715-6.098 28.284z"/><radialGradient id="b" cx="-447.192" cy="-149.772" r="13.535" gradientTransform="rotate(-36.575 127.903 -764.361)" gradientUnits="userSpaceOnUse"><stop offset=".46" stop-color="#ccedfe"/><stop offset="1" stop-color="#21ace7"/></radialGradient><circle opacity=".7" fill="url(#b)" cx="32.284" cy="71.889" r="13.535"/><path fill="#FFF" d="M22.943 77.796s-6.227-8.502 3.09-14.331c0 0-5.958 6.95-3.09 14.331z"/><radialGradient id="c" cx="-430.066" cy="-187.645" r="20.749" gradientTransform="rotate(-36.575 127.903 -764.361)" gradientUnits="userSpaceOnUse"><stop offset=".46" stop-color="#ccedfe"/><stop offset="1" stop-color="#21ace7"/></radialGradient><circle opacity=".7" fill="url(#c)" cx="23.469" cy="31.268" r="20.75"/><path fill="#FFF" d="M9.149 40.325s-9.546-13.034 4.737-21.971c0 0-9.135 10.653-4.737 21.971z"/><g><radialGradient id="d" cx="-404.715" cy="-186.988" r="16.688" gradientTransform="rotate(-36.575 127.903 -764.361)" gradientUnits="userSpaceOnUse"><stop offset=".46" stop-color="#ccedfe"/><stop offset="1" stop-color="#21ace7"/></radialGradient><circle opacity=".7" fill="url(#d)" cx="44.22" cy="16.688" r="16.688"/><path fill="#FFF" d="M32.705 23.972S25.026 13.49 36.514 6.303c-.001 0-7.346 8.567-3.809 17.669z"/></g><g><radialGradient id="e" cx="-433.966" cy="-136.946" r="9.204" gradientTransform="rotate(-36.575 127.903 -764.361)" gradientUnits="userSpaceOnUse"><stop offset=".46" stop-color="#ccedfe"/><stop offset="1" stop-color="#21ace7"/></radialGradient><circle opacity=".7" fill="url(#e)" cx="50.548" cy="74.308" r="9.204"/><path fill="#FFF" d="M44.196 78.326s-4.234-5.781 2.101-9.746c0 0-4.052 4.726-2.101 9.746z"/></g><g><radialGradient id="f" cx="-394.858" cy="-145.956" r="9.204" gradientTransform="rotate(-36.575 127.903 -764.361)" gradientUnits="userSpaceOnUse"><stop offset=".46" stop-color="#ccedfe"/><stop offset="1" stop-color="#21ace7"/></radialGradient><circle opacity=".7" fill="url(#f)" cx="76.587" cy="43.768" r="9.204"/><path fill="#FFF" d="M70.234 47.787S66 42.005 72.336 38.04c0 0-4.053 4.727-2.102 9.747z"/></g><g><radialGradient id="g" cx="-455.867" cy="-166.698" r="9.204" gradientTransform="rotate(-36.575 127.903 -764.361)" gradientUnits="userSpaceOnUse"><stop offset=".46" stop-color="#ccedfe"/><stop offset="1" stop-color="#21ace7"/></radialGradient><circle opacity=".7" fill="url(#g)" cx="15.23" cy="63.465" r="9.205"/><path fill="#FFF" d="M8.878 67.484s-4.234-5.782 2.102-9.747c0 0-4.053 4.727-2.102 9.747z"/></g><g><radialGradient id="h" cx="-409.952" cy="-134.429" r="16.83" gradientTransform="rotate(-36.575 127.903 -764.361)" gradientUnits="userSpaceOnUse"><stop offset=".46" stop-color="#ccedfe"/><stop offset="1" stop-color="#21ace7"/></radialGradient><circle opacity=".7" fill="url(#h)" cx="71.334" cy="62.019" r="16.83"/><path fill="#FFF" d="M59.719 69.365s-7.742-10.57 3.844-17.82c0-.001-7.411 8.642-3.844 17.82z"/></g><g><radialGradient id="i" cx="-386.699" cy="-170.612" r="12.579" gradientTransform="rotate(-36.575 127.903 -764.361)" gradientUnits="userSpaceOnUse"><stop offset=".46" stop-color="#ccedfe"/><stop offset="1" stop-color="#21ace7"/></radialGradient><circle opacity=".7" fill="url(#i)" cx="68.446" cy="19.105" r="12.58"/><path fill="#FFF" d="M59.766 24.596s-5.787-7.901 2.873-13.32c0 0-5.539 6.46-2.873 13.32z"/></g></svg>