<?xml version="1.0" encoding="utf-8"?>
<!-- Generator: Adobe Illustrator 16.0.0, SVG Export Plug-In . SVG Version: 6.00 Build 0)  -->
<!DOCTYPE svg PUBLIC "-//W3C//DTD SVG 1.1//EN" "http://www.w3.org/Graphics/SVG/1.1/DTD/svg11.dtd">
<svg version="1.1" id="Calque_1" xmlns="http://www.w3.org/2000/svg" xmlns:xlink="http://www.w3.org/1999/xlink" x="0px" y="0px"
	 width="7.175px" height="10.881px" viewBox="0 0 7.175 10.881" enable-background="new 0 0 7.175 10.881" xml:space="preserve">
<g>
	<path fill-rule="evenodd" clip-rule="evenodd" fill="#21ACE7" d="M5.101,0H2.075C0.986,0,0.104,0.882,0.104,1.971v4.414
		c0,0.886,0.584,1.635,1.388,1.884c0.185,0.057,0.38,0.088,0.583,0.088h3.026c1.088,0,1.971-0.883,1.971-1.972V1.971
		C7.071,0.882,6.188,0,5.101,0z M2.082,0.475c0-0.109,0.088-0.197,0.197-0.197h2.618c0.108,0,0.196,0.088,0.196,0.197v0.359
		c0,0.108-0.088,0.197-0.196,0.197H2.278c-0.108,0-0.197-0.089-0.197-0.197V0.475z M1.585,7.417c-0.381,0-0.69-0.309-0.69-0.689
		c0-0.382,0.309-0.69,0.69-0.69c0.381,0,0.689,0.309,0.689,0.69C2.274,7.108,1.966,7.417,1.585,7.417z M5.59,7.417
		c-0.381,0-0.69-0.309-0.69-0.689c0-0.382,0.31-0.69,0.69-0.69c0.382,0,0.69,0.309,0.69,0.69C6.28,7.108,5.972,7.417,5.59,7.417z
		 M6.28,3.64c0,0.205-0.345,0.37-0.77,0.37H1.664c-0.425,0-0.769-0.165-0.769-0.37V1.786c0-0.204,0.344-0.37,0.769-0.37h3.847
		c0.425,0,0.77,0.166,0.77,0.37V3.64z"/>
	<polygon fill-rule="evenodd" clip-rule="evenodd" fill="#21ACE7" points="7.175,10.881 6.058,8.107 3.587,8.107 3.587,8.521 
		5.59,8.534 6.517,10.878 	"/>
	<polygon fill-rule="evenodd" clip-rule="evenodd" fill="#21ACE7" points="0,10.881 1.117,8.107 3.587,8.107 3.587,8.521 
		1.585,8.534 0.659,10.878 	"/>
	<rect x="0.968" y="9.251" fill-rule="evenodd" clip-rule="evenodd" fill="#21ACE7" width="5.25" height="0.451"/>
</g>
</svg>
