<?xml version="1.0" encoding="utf-8"?>
<!-- Generator: Adobe Illustrator 16.0.0, SVG Export Plug-In . SVG Version: 6.00 Build 0)  -->
<!DOCTYPE svg PUBLIC "-//W3C//DTD SVG 1.1//EN" "http://www.w3.org/Graphics/SVG/1.1/DTD/svg11.dtd">
<svg version="1.1" id="Calque_1" xmlns="http://www.w3.org/2000/svg" xmlns:xlink="http://www.w3.org/1999/xlink" x="0px" y="0px"
	 width="9.929px" height="10.656px" viewBox="0 0 9.929 10.656" enable-background="new 0 0 9.929 10.656" xml:space="preserve">
<g id="bus_1_">
	<path fill-rule="evenodd" clip-rule="evenodd" fill="#21ACE7" d="M1.202,3.009v1.499H0.267C0.12,4.508,0,4.394,0,4.248V3.269
		c0-0.143,0.12-0.26,0.267-0.26H1.202z"/>
	<path fill-rule="evenodd" clip-rule="evenodd" fill="#21ACE7" d="M9.929,3.269v0.979c0,0.146-0.119,0.26-0.267,0.26H8.729V3.009
		h0.933C9.81,3.009,9.929,3.126,9.929,3.269z"/>
	<path fill-rule="evenodd" clip-rule="evenodd" fill="#21ACE7" d="M8.729,9.021c0-0.117-0.162-0.212-0.361-0.212H8.302
		c-0.199,0-0.36,0.095-0.36,0.212v1.424c0,0.116,0.161,0.211,0.36,0.211h0.066c0.199,0,0.361-0.095,0.361-0.211V9.021z"/>
	<path fill-rule="evenodd" clip-rule="evenodd" fill="#21ACE7" d="M1.99,9.021c0-0.117-0.161-0.212-0.361-0.212H1.563
		c-0.2,0-0.361,0.095-0.361,0.212v1.424c0,0.116,0.161,0.211,0.361,0.211h0.066c0.2,0,0.361-0.095,0.361-0.211V9.021z"/>
	<path fill="#21ACE7" d="M4.966,0c-2.54,0-4.601,0.676-4.601,1.51c0,0.021,0,0.039,0.005,0.06C0.395,1.45,0.503,1.361,0.632,1.361
		h1.456C2.084,1.354,2.084,1.349,2.084,1.341V0.946c0-0.146,0.118-0.261,0.267-0.261h5.23c0.146,0,0.266,0.115,0.266,0.261v0.395
		c0,0.008,0,0.013-0.002,0.021h1.452c0.128,0,0.237,0.089,0.261,0.208C9.563,1.549,9.563,1.53,9.563,1.51
		C9.563,0.676,7.503,0,4.966,0z"/>
	<path fill="#21ACE7" d="M9.558,1.569c0.004,0.003,0,0.005,0,0.008C9.519,1.879,9.209,2.159,8.702,2.388
		C8.66,2.3,8.569,2.24,8.463,2.24H1.469c-0.109,0-0.2,0.062-0.24,0.15C0.722,2.159,0.411,1.879,0.371,1.577
		c0-0.003-0.003-0.005,0-0.008C0.395,1.45,0.503,1.361,0.632,1.361h1.456C2.095,1.494,2.21,1.601,2.351,1.601h5.23
		c0.139,0,0.252-0.106,0.264-0.239h1.452C9.425,1.361,9.534,1.45,9.558,1.569z"/>
	<path fill-rule="evenodd" clip-rule="evenodd" fill="#21ACE7" d="M9.558,1.577C9.519,1.879,9.209,2.159,8.702,2.388
		c0.017,0.034,0.027,0.073,0.027,0.111v2.608c0,0.146-0.12,0.261-0.267,0.261H1.469c-0.149,0-0.267-0.114-0.267-0.261V2.499
		c0-0.038,0.008-0.075,0.026-0.108C0.722,2.159,0.411,1.879,0.371,1.577C0.368,1.59,0.365,1.605,0.365,1.621v8.008
		c0,0.143,0.12,0.26,0.267,0.26h8.665c0.146,0,0.267-0.117,0.267-0.26V1.621C9.563,1.605,9.562,1.59,9.558,1.577z M1.896,8.772
		c-0.383,0-0.694-0.304-0.694-0.677c0-0.375,0.311-0.678,0.694-0.678c0.384,0,0.695,0.303,0.695,0.678
		C2.591,8.469,2.28,8.772,1.896,8.772z M8.035,8.772c-0.384,0-0.694-0.304-0.694-0.677c0-0.375,0.311-0.678,0.694-0.678
		s0.694,0.303,0.694,0.678C8.729,8.469,8.419,8.772,8.035,8.772z"/>
</g>
</svg>
