<svg xmlns="http://www.w3.org/2000/svg" width="7.175" height="10.881" viewBox="0 0 7.175 10.881"><g fill-rule="evenodd" clip-rule="evenodd" fill="#21ACE7"><path d="M5.101 0H2.075A1.97 1.97 0 0 0 .104 1.971v4.414a1.973 1.973 0 0 0 1.971 1.972h3.026a1.972 1.972 0 0 0 1.971-1.972V1.971A1.972 1.972 0 0 0 5.101 0zM2.082.475c0-.109.088-.197.197-.197h2.618c.108 0 .196.088.196.197v.359a.197.197 0 0 1-.196.197H2.278a.198.198 0 0 1-.197-.197V.475zm-.497 6.942a.69.69 0 1 1 0-1.38.69.69 0 0 1 0 1.38zm4.005 0a.69.69 0 1 1 0-1.38.69.69 0 0 1 0 1.38zm.69-3.777c0 .205-.345.37-.77.37H1.664c-.425 0-.769-.165-.769-.37V1.786c0-.204.344-.37.769-.37h3.847c.425 0 .77.166.77.37V3.64z"/><path d="M7.175 10.881L6.058 8.107H3.587v.414l2.003.013.927 2.344zM0 10.881l1.117-2.774h2.47v.414l-2.002.013-.926 2.344z"/><path d="M.968 9.251h5.25v.451H.968z"/></g></svg>