<svg xmlns="http://www.w3.org/2000/svg" width="9.929" height="10.656" viewBox="0 0 9.929 10.656"><g fill="#21ACE7"><path fill-rule="evenodd" clip-rule="evenodd" d="M1.202 3.009v1.499H.267A.262.262 0 0 1 0 4.248v-.979c0-.143.12-.26.267-.26h.935zM9.929 3.269v.979c0 .146-.119.26-.267.26h-.933V3.009h.933c.148 0 .267.117.267.26zM8.729 9.021c0-.117-.162-.212-.361-.212h-.066c-.199 0-.36.095-.36.212v1.424c0 .116.161.211.36.211h.066c.199 0 .361-.095.361-.211V9.021zM1.99 9.021c0-.117-.161-.212-.361-.212h-.066c-.2 0-.361.095-.361.212v1.424c0 .116.161.211.361.211h.066c.2 0 .361-.095.361-.211V9.021z"/><path d="M4.966 0C2.426 0 .365.676.365 1.51c0 .021 0 .039.005.06a.266.266 0 0 1 .262-.209h1.456c-.004-.007-.004-.012-.004-.02V.946c0-.146.118-.261.267-.261h5.23c.146 0 .266.115.266.261v.395c0 .008 0 .013-.002.021h1.452c.128 0 .237.089.261.208.005-.021.005-.04.005-.06C9.563.676 7.503 0 4.966 0z"/><path d="M9.558 1.569c.004.003 0 .005 0 .008-.039.302-.349.582-.856.811a.263.263 0 0 0-.239-.148H1.469a.26.26 0 0 0-.24.15c-.507-.231-.818-.511-.858-.813 0-.003-.003-.005 0-.008a.264.264 0 0 1 .261-.208h1.456a.26.26 0 0 0 .263.24h5.23a.264.264 0 0 0 .264-.239h1.452a.263.263 0 0 1 .261.207z"/><path fill-rule="evenodd" clip-rule="evenodd" d="M9.558 1.577c-.039.302-.349.582-.856.811a.252.252 0 0 1 .027.111v2.608c0 .146-.12.261-.267.261H1.469a.261.261 0 0 1-.267-.261V2.499c0-.038.008-.075.026-.108-.506-.232-.817-.512-.857-.814a.195.195 0 0 0-.006.044v8.008c0 .143.12.26.267.26h8.665a.265.265 0 0 0 .267-.26V1.621a.195.195 0 0 0-.006-.044zM1.896 8.772a.686.686 0 0 1-.694-.677c0-.375.311-.678.694-.678.384 0 .695.303.695.678a.686.686 0 0 1-.695.677zm6.139 0a.686.686 0 0 1-.694-.677c0-.375.311-.678.694-.678s.694.303.694.678c0 .374-.31.677-.694.677z"/></g></svg>