<?xml version="1.0" encoding="utf-8"?>
<!-- Generator: Adobe Illustrator 16.0.0, SVG Export Plug-In . SVG Version: 6.00 Build 0)  -->
<!DOCTYPE svg PUBLIC "-//W3C//DTD SVG 1.1//EN" "http://www.w3.org/Graphics/SVG/1.1/DTD/svg11.dtd">
<svg version="1.1" id="Calque_1" xmlns="http://www.w3.org/2000/svg" xmlns:xlink="http://www.w3.org/1999/xlink" x="0px" y="0px"
	 width="10px" height="15px" viewBox="0 0 10 15" enable-background="new 0 0 10 15" xml:space="preserve">
<path fill="#21ACE7" d="M9.62,6.915L9.616,6.917C9.861,6.326,10,5.68,10,5c0-2.761-2.238-5-5-5C2.239,0,0,2.239,0,5
	c0,0.679,0.138,1.326,0.384,1.917L0.38,6.915l0.006,0.011C0.534,7.279,0.729,7.605,0.95,7.912L5,15l4.051-7.089
	C9.271,7.604,9.466,7.28,9.613,6.928L9.62,6.915z M5,2c1.657,0,3,1.343,3,3S6.657,8,5,8C3.344,8,2,6.657,2,5S3.344,2,5,2z"/>
</svg>
