<svg xmlns="http://www.w3.org/2000/svg" width="54.057" height="31.563" viewBox="0 0 54.057 31.563"><path fill-rule="evenodd" clip-rule="evenodd" d="M49.33 7.214c.258-.526.51-1.06.823-1.553A6.315 6.315 0 0 0 51.156 2.6c.047-.708-.17-1.336-.813-1.667-1.203-.62-2.51-.907-3.86-.933-.558-.012-1.116.059-1.672.104-.357.029-.729.027-1.069.126-1.404.413-2.781.895-4.036 1.673-.625.386-1.229.794-1.709 1.36L36.93 4.522c-.359-.429-.694-.896-1.098-1.296-1.079-1.07-2.355-1.813-3.896-1.877-1.191-.049-2.357.158-3.43.766-.762.431-1.293 1.073-1.799 1.75-.137.185-.25.264-.479.126a3.297 3.297 0 0 0-.768-.341c-.807-.234-1.598-.071-2.381.146-1.448.403-2.515 1.264-3.128 2.649-.106.239-.16.502-.242.768-.15-.029-.278-.063-.409-.077a3.024 3.024 0 0 0-.404-.008c-1.354.053-2.577.489-3.563 1.414-.787.739-1.472 1.54-1.736 2.686-.343 1.494-.125 2.873.402 4.254.032.083.042.175.061.262-.105.011-.22.055-.312.027-.539-.158-.991-.445-1.327-.911a2.475 2.475 0 0 0-.431-.443c-.736-.617-1.638-.915-2.521-1.204-1.222-.398-2.506-.301-3.735-.072-.839.159-1.654.555-2.418.958-.574.305-1.105.74-1.562 1.208A5.086 5.086 0 0 0 .536 17.36c-.284.894-.592 1.756-.527 2.722.041.602.152 1.191.476 1.66.586.848 1.502 1.24 2.482 1.477.601.146 1.204.285 1.799.451.087.025.206.195.191.277a3.808 3.808 0 0 1-.234.838c-.361.858-.782 1.684-.919 2.634-.144.999-.264 1.976.465 2.798.298.335.675.638 1.074.842 1.025.521 2.178.516 3.275.5.99-.012 1.995-.258 2.955-.529a7.505 7.505 0 0 0 2.403-1.188 12.118 12.118 0 0 0 1.875-1.72c.852-.951 1.351-2.132 1.866-3.267.665-1.46 1.506-2.689 2.96-3.424.312-.157.561-.451.983-.394.724.1 1.458.222 2.183.2 1.011-.03 2.032-.107 3.021-.305a12.9 12.9 0 0 0 3.483-1.224c.952-.499 1.925-.94 2.785-1.615a16.183 16.183 0 0 0 2.35-2.248c.385-.451.893-.69 1.393-.819.678-.174 1.344-.145 1.675-.157.551-.021 1.106.041 1.54.444.285.268.537.571.83.83.371.332.739.681 1.16.94.992.612 2.105.892 3.261.95.687.035 1.394.059 2.063-.072.899-.176 1.817-.364 2.595-.922.494-.352 1.056-.617 1.508-1.012 1.047-.914 1.81-2.039 2.203-3.381.312-1.063.676-2.125-.2-3.142-.591-.684-1.286-1.18-2.142-1.427-.578-.168-1.184-.244-1.776-.362-.402-.079-.441-.136-.262-.501zm-34.987 3.683c.215-.627.732-1.186 1.214-1.676 1.051-1.069 2.365-1.53 3.869-1.437.23.014.362.079.454.321.027.074.058.145.091.212.319.659.875 1.067 1.594 1.302 1.564.512 2.927.042 4.222-.814.704-.466 1.201-1.097 1.552-1.86.316-.693.264-1.359-.108-2.002a.82.82 0 0 1-.088-.198c-.058-.2-.001-.369.153-.585.64-.896 1.423-1.599 2.489-1.907 1.218-.353 2.489-.524 3.669.019.738.34 1.379.921 2.012 1.453.34.285.576.694.855 1.048.209.263.172.478-.053.743a7.148 7.148 0 0 0-.849 1.233c-.29.548-.713.941-1.224 1.255-.72.439-1.438.882-2.168 1.299-.537.305-1.098.573-1.649.854-.444.223-.892.44-1.361.67l.099-.968-.131-.039c-.176.255-.336.522-.529.762-.412.515-.801 1.062-1.278 1.509-.627.588-1.372.957-2.29.841-.752-.094-1.511-.138-2.268-.201-.1-.009-.202-.007-.302-.009l-.053.116c.204.145.408.288.683.48-.545.2-1.033.382-1.521.559-1 .36-1.989.753-3.004 1.063-.908.278-1.846.462-2.77.687-.131.033-.26.07-.392.093l-.03.005c-.448.066-.586-.199-.763-.574-.668-1.413-.607-2.854-.125-4.254zm17.16 7.938c-2.919 1.679-6.041 2.384-9.407 1.8 4.168-2.314 8.478-4.26 13.267-5.309-1.092 1.493-2.356 2.644-3.86 3.509zm16.82-9.406c.081.316.442.561.739.801-.17-.62-.301-1.206-.029-1.906.496.09 1.031.133 1.528.291.548.175 1.077.394 1.55.772.643.515.934 1.139.891 1.943a5.294 5.294 0 0 1-.59 2.139c-.441.865-.95 1.689-1.699 2.322-.814.691-1.709 1.254-2.781 1.471-.406.082-.81.184-1.218.253-1.089.187-2.013-.276-2.896-.808-.521-.313-.995-.711-1.473-1.09-1.139-.899-2.377-1.603-3.859-1.622-.723-.009-1.456.17-2.17.333-.971.22-1.939.469-2.887.771-1.145.366-2.27.787-3.395 1.21-.712.269-1.4.598-2.109.873-.676.263-1.373.47-2.044.739-.475.191-.928.439-1.383.677-.647.339-1.287.693-1.934 1.036-1.29.684-2.593 1.344-3.868 2.054-.694.386-1.34.856-2.007 1.288-.042.028-.08.063-.119.096.03.022.061.044.09.067l1.279-.47c-.036.109-.045.176-.076.225-.253.396-.551.771-.759 1.188-.437.872-.753 1.812-1.255 2.64-.595.976-1.312 1.869-2.234 2.599-.771.609-1.646.955-2.55 1.235-.542.168-1.13.194-1.701.258-.899.102-1.806.143-2.688-.103-1.606-.443-2.229-1.451-1.978-3.041.097-.61.439-1.179.634-1.779a27.65 27.65 0 0 0 .548-1.92c.226-.912.011-1.768-.452-2.553-.128-.217-.408-.342-.618-.509l-.085.099c.11.193.238.379.324.584.083.198.165.414.176.627.029.567-.177.719-.738.658-.971-.104-1.855-.404-2.595-1.064-.66-.589-1.017-1.291-1.009-2.213.009-1.266.303-2.432.961-3.506.499-.814 1.187-1.47 2.035-1.862.92-.424 1.899-.697 2.956-.712 1.024-.014 1.993.198 2.973.422.607.139 1.05.491 1.433.951.22.264.439.525.67.779.542.604 1.285.725 2.028.766a7.475 7.475 0 0 0 1.558-.08 12.167 12.167 0 0 0 2.051-.514l.361-.121c1.406-.467 2.811-.939 4.213-1.418.26-.088.512-.21.754-.342.73-.396 1.495-.399 2.302-.324 1.148.108 2.127-.387 2.78-1.276.48-.656 1.118-.946 1.778-1.279.968-.488 1.928-.991 2.896-1.478.879-.442 1.772-.856 2.647-1.31.724-.375 1.428-.788 2.142-1.183.102-.057.21-.104.314-.156-.015-.04-.028-.079-.044-.118l-1.35.495-.059-.124c.281-.441.557-.883.846-1.32.461-.699.873-1.441 1.412-2.075.554-.652 1.201-1.238 1.867-1.779 1.135-.917 2.494-1.333 3.92-1.487a21.238 21.238 0 0 1 2.994-.108c.695.023 1.381.263 1.91.746.235.217.396.549.511.859.573 1.57-.177 2.884-.918 4.152-.606 1.038-.791 2.102-.501 3.231z"/><linearGradient id="a" gradientUnits="userSpaceOnUse" x1="-287.67" y1="-7.149" x2="-263.518" y2="-7.149" gradientTransform="rotate(-20.149 -80.883 -845.109)"><stop offset=".575" stop-color="#ffc36c"/><stop offset="1" stop-color="#faf6b4"/></linearGradient><path fill-rule="evenodd" clip-rule="evenodd" fill="url(#a)" d="M36.269 5.514a7.148 7.148 0 0 0-.849 1.233c-.29.548-.713.941-1.224 1.255-.72.439-1.438.882-2.168 1.299-.537.305-1.098.573-1.649.854-.444.223-.892.44-1.361.67l.099-.968-.131-.039c-.176.255-.336.522-.529.762-.412.515-.801 1.062-1.278 1.509-.627.588-1.372.957-2.29.841-.752-.094-1.511-.138-2.268-.201-.1-.009-.202-.007-.302-.009l-.053.116c.204.145.408.288.683.48-.545.2-1.033.382-1.521.559-1 .36-1.989.753-3.004 1.063-.908.278-1.846.462-2.77.687-.131.033-.26.07-.392.093l-.03.005c-.448.066-.586-.199-.763-.574-.668-1.411-.607-2.852-.125-4.251.215-.627.732-1.186 1.214-1.676 1.051-1.069 2.365-1.53 3.869-1.437.23.014.362.079.454.321.027.074.058.145.091.212.319.659.875 1.067 1.594 1.302 1.564.512 2.927.042 4.222-.814.704-.466 1.201-1.097 1.552-1.86.316-.693.264-1.359-.108-2.002a.82.82 0 0 1-.088-.198c-.058-.2-.001-.369.153-.585.64-.896 1.423-1.599 2.489-1.907 1.218-.353 2.489-.524 3.669.019.738.34 1.379.921 2.012 1.453.34.285.576.694.855 1.048.209.26.172.475-.053.74z"/><path fill-rule="evenodd" clip-rule="evenodd" fill="#FFF" d="M36.283 7.212c.281-.441.557-.883.846-1.32.461-.699.873-1.441 1.412-2.075.554-.652 1.2-1.239 1.867-1.779 1.135-.917 2.494-1.334 3.92-1.487a21.383 21.383 0 0 1 2.994-.108c.695.024 1.381.264 1.91.746.235.217.398.55.511.859.573 1.569-.179 2.884-.918 4.152-.606 1.037-.792 2.1-.502 3.229.082.316.443.561.739.8-.171-.619-.301-1.205-.029-1.905.496.09 1.031.132 1.527.291.548.174 1.078.393 1.551.771.643.515.934 1.139.891 1.944a5.294 5.294 0 0 1-.59 2.139c-.441.865-.95 1.689-1.698 2.323-.815.69-1.71 1.253-2.782 1.47-.406.082-.81.184-1.218.254-1.089.186-2.013-.277-2.896-.809-.521-.313-.994-.711-1.474-1.09-1.138-.899-2.376-1.603-3.858-1.622-.723-.009-1.455.17-2.17.333-.971.22-1.939.469-2.887.771-1.145.366-2.27.787-3.395 1.21-.711.269-1.4.599-2.109.873-.675.263-1.373.47-2.044.739-.475.191-.928.439-1.381.677-.648.339-1.288.694-1.934 1.036-1.291.684-2.594 1.344-3.869 2.054-.694.386-1.34.856-2.007 1.288-.042.027-.08.063-.12.096.031.021.061.045.09.066l1.28-.469c-.037.109-.045.176-.076.226-.253.396-.55.77-.759 1.188-.437.871-.752 1.81-1.255 2.638-.594.978-1.313 1.87-2.234 2.6-.771.609-1.646.956-2.55 1.235-.542.168-1.131.194-1.701.258-.9.102-1.806.143-2.689-.103-1.606-.443-2.229-1.451-1.978-3.041.097-.611.439-1.179.634-1.777.206-.634.388-1.275.548-1.922.227-.912.01-1.768-.453-2.553-.127-.217-.407-.342-.617-.509l-.085.098c.109.194.238.38.324.584.084.2.166.415.176.628.029.567-.177.719-.738.658-.972-.104-1.855-.404-2.595-1.064-.661-.59-1.016-1.291-1.009-2.213.01-1.266.304-2.432.961-3.506.499-.814 1.186-1.471 2.034-1.862.922-.424 1.9-.697 2.957-.712 1.024-.015 1.992.197 2.973.421.607.139 1.05.492 1.434.951.219.264.439.525.668.781.543.602 1.286.723 2.029.764 1.241.068 2.37-.258 3.542-.647 1.855-.518 4.973-1.73 5.219-1.856 1.25-.635 1.717-.412 2.522-.337 1.149.107 1.987-.34 2.639-1.23.482-.656 1.216-.95 1.875-1.283.969-.487 1.93-.991 2.897-1.478.88-.441 1.772-.856 2.647-1.309.723-.375 1.428-.789 2.142-1.183.102-.057.21-.104.314-.156a14.92 14.92 0 0 0-.045-.118l-1.349.495-.059-.123z"/><linearGradient id="b" gradientUnits="userSpaceOnUse" x1="-275.793" y1="-4.114" x2="-276.42" y2="-9.93" gradientTransform="rotate(-20.149 -80.883 -845.109)"><stop offset=".575" stop-color="#ffc36c"/><stop offset="1" stop-color="#faf6b4"/></linearGradient><path fill-rule="evenodd" clip-rule="evenodd" fill="url(#b)" d="M34.134 3.552c-.997-1.222-2.506-1.17-2.506-1.17-1.736-.187-3.184.944-3.184.944-.34.223-1.008 1.049-1.296 1.416a.887.887 0 0 0 .088.199c.372.642.425 1.309.108 2.001-.35.763-.849 1.395-1.552 1.86-1.295.857-2.658 1.327-4.222.815-.719-.236-1.275-.643-1.594-1.302-.54-.009-1.351.013-1.951.186 0 0-1.292.083-2.389 1.259 0 0-1.168 1.173-1.149 2.293 0 0-.066 1.396.092 1.907.155.5-.003.146.688 1.756.132-.022.262-.061.393-.093.924-.225 1.86-.408 2.77-.686 1.015-.312 2.004-.705 3.003-1.064.49-.177 1.194-.436 1.739-.636-.274-.193-.696-.259-.9-.403-.01-.009-.025-.08.053-.117.1.003.194.049.295.071.741.163 1.755.16 2.508.253.918.116 1.791-.513 2.418-1.102.478-.448.762-.926 1.051-1.339.177-.253.22-.529.395-.784.07-.041.12.006.132.038-.031.309-.217.784-.253 1.136.47-.231 1.071-.615 1.515-.839.553-.279 1.112-.547 1.65-.853.73-.417 1.449-.86 2.166-1.299.512-.314.936-.706 1.227-1.254.089-.169.187-.333.293-.496-1.024-2.161-1.588-2.697-1.588-2.697z"/><path fill-rule="evenodd" clip-rule="evenodd" fill="#EEAA59" d="M36.269 5.514a7.148 7.148 0 0 0-.555.738c-1.021-2.163-1.585-2.699-1.585-2.699-.997-1.222-2.507-1.168-2.507-1.168-1.735-.188-3.183.943-3.183.943-.341.223-1.008 1.049-1.296 1.416-.058-.2-.001-.369.153-.585.64-.896 1.423-1.599 2.489-1.907 1.218-.353 2.489-.524 3.669.019.738.34 1.379.921 2.012 1.453.34.285.576.694.855 1.048.21.262.173.477-.052.742z"/><path fill-rule="evenodd" clip-rule="evenodd" fill="#FFC26B" d="M22.096 20.635c4.168-2.314 8.477-4.261 13.267-5.309-1.092 1.493-2.355 2.644-3.859 3.509-2.921 1.679-6.042 2.384-9.408 1.8z"/><path fill-rule="evenodd" clip-rule="evenodd" fill="#EEAA59" d="M19.971 8.316c-.54-.009-1.35.013-1.951.186 0 0-1.293.083-2.39 1.259 0 0-1.018 1.128-1.148 2.293 0 0-.277 2.13.779 3.664l-.03.005c-.448.066-.586-.199-.763-.574-.668-1.411-.607-2.852-.125-4.251.215-.627.732-1.186 1.214-1.676 1.051-1.069 2.365-1.53 3.869-1.437.23.014.362.079.454.321.027.072.058.144.091.21z"/><path fill-rule="evenodd" clip-rule="evenodd" fill="#EEAD5C" d="M33.313 15.94l1.744-.462s.033 0 .017.025c-.305.435-3.419 4.655-9.774 5.166 0 0 6.253-1.861 7.813-4.587.06-.108.2-.142.2-.142z"/><radialGradient id="c" cx="-276.841" cy="-11.68" r="2.277" fx="-279.119" fy="-11.665" gradientTransform="rotate(-20.149 -80.883 -845.109)" gradientUnits="userSpaceOnUse"><stop offset="0" stop-color="#fff"/><stop offset="1" stop-color="#020303"/></radialGradient><path fill-rule="evenodd" clip-rule="evenodd" fill="url(#c)" d="M24.952 4.014c.127 1.631-2.163 4.222-4.663 2.821.304-.972 1.479-3.163 4.663-2.821z"/><radialGradient id="d" cx="-282.839" cy="-7.632" r=".477" gradientTransform="matrix(.9388 -.3444 .3846 1.0485 287.013 -76.101)" gradientUnits="userSpaceOnUse"><stop offset=".59" stop-color="#f08f33"/><stop offset=".883" stop-color="#b86a24"/></radialGradient><path fill-rule="evenodd" clip-rule="evenodd" fill="url(#d)" d="M18.867 13.273c.074.204-.035.479-.217.547-.182.067-.438-.056-.513-.26-.076-.204.034-.496.216-.564.182-.067.439.074.514.277z"/><linearGradient id="e" gradientUnits="userSpaceOnUse" x1="-283.078" y1="-7.094" x2="-283.39" y2="-6.853" gradientTransform="rotate(-20.149 -80.883 -845.109)"><stop offset="0" stop-color="#f09339"/><stop offset="1" stop-color="#b76018"/></linearGradient><path fill-rule="evenodd" clip-rule="evenodd" fill="url(#e)" d="M18.079 11.281c.054.148-.01.308-.145.357-.134.049-.287-.031-.341-.179-.054-.147.011-.307.145-.357.134-.049.287.031.341.179z"/><radialGradient id="f" cx="-284.985" cy="-6.288" r=".285" gradientTransform="rotate(-20.149 -80.883 -845.109)" gradientUnits="userSpaceOnUse"><stop offset=".514" stop-color="#f09339"/><stop offset="1" stop-color="#b76018"/></radialGradient><circle fill-rule="evenodd" clip-rule="evenodd" fill="url(#f)" cx="16.351" cy="12.739" r=".285"/><radialGradient id="g" cx="-246.81" cy="-14.33" r=".523" gradientTransform="matrix(.9885 -.3626 .3748 1.0215 281.934 -70.244)" gradientUnits="userSpaceOnUse"><stop offset=".431" stop-color="#f08f33"/><stop offset=".861" stop-color="#b86a24"/></radialGradient><path fill-rule="evenodd" clip-rule="evenodd" fill="url(#g)" d="M32.341 4.901c-.063-.167-.01-.34.117-.386.126-.047.279.051.34.218s.008.34-.117.387c-.127.046-.279-.052-.34-.219z"/><radialGradient id="h" cx="-268.441" cy="-6.799" r=".613" gradientTransform="rotate(-20.149 -80.883 -845.109)" gradientUnits="userSpaceOnUse"><stop offset=".431" stop-color="#f08f33"/><stop offset=".861" stop-color="#b86a24"/></radialGradient><path fill-rule="evenodd" clip-rule="evenodd" fill="url(#h)" d="M31.982 6.618c.066.18.004.37-.14.422s-.312-.051-.378-.232c-.066-.18-.004-.368.139-.42.144-.054.313.05.379.23z"/><radialGradient id="i" cx="-266.341" cy="-6.19" r=".585" gradientTransform="rotate(-20.149 -80.883 -845.109)" gradientUnits="userSpaceOnUse"><stop offset=".431" stop-color="#f08f33"/><stop offset=".861" stop-color="#b86a24"/></radialGradient><path fill-rule="evenodd" clip-rule="evenodd" fill="url(#i)" d="M34.152 6.314c.059.159-.058.347-.258.42-.201.073-.41.005-.469-.154-.059-.158.057-.347.258-.42.199-.074.411-.005.469.154z"/><path fill-rule="evenodd" clip-rule="evenodd" fill="#E1F0FD" d="M49.43 4.035s-.035.405.188.048c0 0 .752-2.509-1.161-3.166 0 0-.241-.017-.074.157-.001 0 1.477.713 1.047 2.961zM43.869 16.123s-.611-.246-.116.147c0 0 1.304 1.272 3.201.994 0 0 2.646-.304 4.144-2.134 0 0 1.357-1.649 1.655-3.22 0 0 .343-1.695-.511-2.1 0 0-.434-.337-.145.314 0 0 .672 1.727-.018 2.698 0 0-.997 2.091-2.92 3.044-1.925.955-3.059.782-3.059.782s-1.029.079-2.231-.525zM1.349 18.29s.057-.481-.149-.051c-.207.431-.071 1.908-.064 1.997.006.09.048.453.295.807 0 0 .249.535 1.268.998 0 0 1.452.539.18-.223-.001 0-1.251-.808-1.53-3.528zM4.938 28.576s-.01-.389.157-.005c0 0 .099.839.6 1.243 0 0 .327.324-.099.14-.001 0-.57-.352-.658-1.378zM14.974 27.363s.494-.508.119.074c0 0-.9 1.676-2.5 2.303 0 0-.483.178.02-.125-.001 0 1.142-.981 2.361-2.252z"/><ellipse transform="rotate(-20.205 40.965 2.819)" fill-rule="evenodd" clip-rule="evenodd" cx="40.964" cy="2.819" rx=".15" ry=".09"/><ellipse transform="rotate(-41.184 41.95 2.283)" fill-rule="evenodd" clip-rule="evenodd" cx="41.95" cy="2.284" rx=".151" ry=".09"/><path fill-rule="evenodd" clip-rule="evenodd" d="M39.91 3.784s.404-.329.953-.414c0 0 .148-.014.021.057 0 0-.817.347-.904.52-.047.094-.3.013-.07-.163zM39.004 4.917s.427-.466 1.071-.666c0 0 .176-.042.035.066 0 0-.92.559-.994.781-.04.124-.359.072-.112-.181zM38.714 5.991s.318-.463.861-.718c0 0 .15-.059.039.053 0 0-.742.607-.779.812-.019.113-.306.107-.121-.147z"/><ellipse transform="rotate(25.565 50.856 9.153)" fill-rule="evenodd" clip-rule="evenodd" cx="50.855" cy="9.154" rx=".175" ry=".079"/><ellipse transform="rotate(-49.428 51.17 10.185)" fill-rule="evenodd" clip-rule="evenodd" cx="51.167" cy="10.186" rx=".096" ry=".22"/><path fill-rule="evenodd" clip-rule="evenodd" d="M51.222 10.886s-.118-.099-.076.028c0 0 .258.704.32.972 0 0 .153.618.236.152.001 0 .086-.204-.48-1.152zM51.023 11.655s-.123-.144-.098.019c0 0 .174.906.196 1.245 0 0 .063.781.258.23 0 0 .144-.23-.356-1.494zM50.636 13.333s-.013-.062-.032-.011c0 0-.1.292-.149.395 0 0-.11.238.037.109 0 0 .08-.043.144-.493zM48.035 15.102s-.286-.127.072-.148c0 0 1.588.133 1.977-.478 0 0 .327-.517.149.046 0 0-.079.749-2.198.58z"/><ellipse transform="rotate(-20.156 5.606 20.818)" cx="5.607" cy="20.819" rx=".152" ry=".134"/><ellipse transform="rotate(5.19 5.455 19.732)" cx="5.458" cy="19.727" rx=".237" ry=".171"/><ellipse transform="rotate(5.126 15.483 24.182)" fill-rule="evenodd" clip-rule="evenodd" cx="15.475" cy="24.171" rx=".148" ry=".073"/><ellipse transform="rotate(5.062 15.202 24.85)" fill-rule="evenodd" clip-rule="evenodd" cx="15.204" cy="24.855" rx=".271" ry=".087"/><path fill-rule="evenodd" clip-rule="evenodd" d="M13.961 26.262s.822-.068 1.236-.594c0 0 .263-.361-.073-.064 0 0-.516.463-.968.495.001 0-.583.063-.195.163zM13.283 27.373s.535-.092 1.168-.617c.002.006.309-.369-.095-.073 0 0-.568.481-1.019.509 0-.001-.455.107-.054.181zM11.534 28.834s-.454-.098.053-.205c0 0 .873-.115 1.426-.689 0 0 .65-.497.122.109 0 0-.74.744-1.601.785z"/><ellipse transform="rotate(-20.495 3.19 21.795)" fill-rule="evenodd" clip-rule="evenodd" cx="3.188" cy="21.792" rx=".06" ry=".053"/><ellipse transform="rotate(-7.563 2.722 21.215)" fill-rule="evenodd" clip-rule="evenodd" cx="2.719" cy="21.213" rx=".07" ry=".163"/><path fill-rule="evenodd" clip-rule="evenodd" d="M2.364 20.472s-.189-.819.011-1.253c0 0 .289-.496.146.092 0 0-.189.84-.085 1.135 0-.001.062.355-.072.026zM2.007 19.146s-.087-.91.228-1.365c0 0 .433-.515.159.113 0 0-.371.898-.295 1.23 0 .001.012.397-.092.022zM1.788 17.964s.087-.913.482-1.298c0 0 .521-.424.135.141 0 0-.534.813-.522 1.153-.001 0-.063.39-.095.004zM2.847 15.695s.751-1.086 2.069-1.145c0 0 .56.102-.051.253 0 0-1.17.051-1.852.882.001.002-.272.363-.166.01zM47.344 6.122c-.178 0-.323.178-.322.399.001.22.146.398.323.399.179-.001.323-.179.322-.4 0-.22-.144-.399-.323-.398zm.12.4c0 .089-.05.161-.111.162-.061-.001-.11-.073-.109-.162-.001-.089.049-.161.109-.161.063 0 .111.073.111.161z"/></svg>