<svg xmlns="http://www.w3.org/2000/svg" width="262.318" height="94.912" viewBox="0 0 262.318 94.912"><radialGradient id="a" cx="-268.226" cy="-105.49" r="26.711" gradientTransform="rotate(-36.575 211.396 -764.245)" gradientUnits="userSpaceOnUse"><stop offset=".46" stop-color="#ccedfe"/><stop offset="1" stop-color="#21ace7"/></radialGradient><circle opacity=".7" fill="url(#a)" cx="218.772" cy="50.583" r="26.711"/><path fill="#FFF" d="M200.338 62.241s-12.289-16.778 6.098-28.284c0 .001-11.758 13.715-6.098 28.284z"/><radialGradient id="b" cx="-292.481" cy="-93.503" r="13.535" gradientTransform="rotate(-36.575 211.396 -764.245)" gradientUnits="userSpaceOnUse"><stop offset=".46" stop-color="#ccedfe"/><stop offset="1" stop-color="#21ace7"/></radialGradient><circle opacity=".7" fill="url(#b)" cx="206.436" cy="74.663" r="13.535"/><path fill="#FFF" d="M197.095 80.57s-6.227-8.502 3.09-14.331c0 0-5.958 6.949-3.09 14.331z"/><radialGradient id="c" cx="-275.355" cy="-131.376" r="20.749" gradientTransform="rotate(-36.575 211.396 -764.245)" gradientUnits="userSpaceOnUse"><stop offset=".46" stop-color="#ccedfe"/><stop offset="1" stop-color="#21ace7"/></radialGradient><circle opacity=".7" fill="url(#c)" cx="197.621" cy="34.042" r="20.75"/><path fill="#FFF" d="M183.301 43.099s-9.546-13.034 4.737-21.971c.001-.001-9.134 10.653-4.737 21.971z"/><g><radialGradient id="d" cx="-250.004" cy="-130.719" r="16.687" gradientTransform="rotate(-36.575 211.396 -764.245)" gradientUnits="userSpaceOnUse"><stop offset=".46" stop-color="#ccedfe"/><stop offset="1" stop-color="#21ace7"/></radialGradient><circle opacity=".7" fill="url(#d)" cx="218.373" cy="19.462" r="16.688"/><path fill="#FFF" d="M206.857 26.746s-7.679-10.482 3.809-17.669c0 0-7.345 8.567-3.809 17.669z"/></g><g><radialGradient id="e" cx="-279.255" cy="-80.677" r="9.204" gradientTransform="rotate(-36.575 211.396 -764.245)" gradientUnits="userSpaceOnUse"><stop offset=".46" stop-color="#ccedfe"/><stop offset="1" stop-color="#21ace7"/></radialGradient><circle opacity=".7" fill="url(#e)" cx="224.7" cy="77.082" r="9.204"/><path fill="#FFF" d="M218.348 81.1s-4.234-5.781 2.102-9.746c0 0-4.053 4.726-2.102 9.746z"/></g><g><radialGradient id="f" cx="-240.148" cy="-89.686" r="9.205" gradientTransform="rotate(-36.575 211.396 -764.245)" gradientUnits="userSpaceOnUse"><stop offset=".46" stop-color="#ccedfe"/><stop offset="1" stop-color="#21ace7"/></radialGradient><circle opacity=".7" fill="url(#f)" cx="250.739" cy="46.542" r="9.205"/><path fill="#FFF" d="M244.387 50.561s-4.234-5.782 2.102-9.747c0-.001-4.053 4.727-2.102 9.747z"/></g><g><radialGradient id="g" cx="-301.157" cy="-110.428" r="9.205" gradientTransform="rotate(-36.575 211.396 -764.245)" gradientUnits="userSpaceOnUse"><stop offset=".46" stop-color="#ccedfe"/><stop offset="1" stop-color="#21ace7"/></radialGradient><circle opacity=".7" fill="url(#g)" cx="189.383" cy="66.239" r="9.205"/><path fill="#FFF" d="M183.031 70.258s-4.234-5.782 2.102-9.747c-.001 0-4.053 4.727-2.102 9.747z"/></g><g><radialGradient id="h" cx="-255.241" cy="-78.16" r="16.83" gradientTransform="rotate(-36.575 211.396 -764.245)" gradientUnits="userSpaceOnUse"><stop offset=".46" stop-color="#ccedfe"/><stop offset="1" stop-color="#21ace7"/></radialGradient><circle opacity=".7" fill="url(#h)" cx="245.486" cy="64.793" r="16.83"/><path fill="#FFF" d="M233.872 72.139s-7.742-10.57 3.844-17.82c-.001-.001-7.411 8.642-3.844 17.82z"/></g><g><radialGradient id="i" cx="-231.989" cy="-114.342" r="12.579" gradientTransform="rotate(-36.575 211.396 -764.245)" gradientUnits="userSpaceOnUse"><stop offset=".46" stop-color="#ccedfe"/><stop offset="1" stop-color="#21ace7"/></radialGradient><circle opacity=".7" fill="url(#i)" cx="242.599" cy="21.879" r="12.58"/><path fill="#FFF" d="M233.917 27.37s-5.786-7.901 2.873-13.32c.001 0-5.539 6.46-2.873 13.32z"/></g><g><path fill-rule="evenodd" clip-rule="evenodd" d="M148.335 21.693c.775-1.581 1.533-3.186 2.475-4.669 1.799-2.825 2.811-5.874 3.018-9.203.139-2.129-.512-4.019-2.443-5.011C147.766.947 143.838.083 139.776.004c-1.676-.036-3.355.176-5.027.312-1.074.086-2.191.081-3.215.378-4.222 1.242-8.365 2.691-12.137 5.032-1.88 1.162-3.694 2.389-5.14 4.091-1.074 1.269-2.152 2.537-3.209 3.785-1.08-1.291-2.088-2.694-3.303-3.897-3.242-3.217-7.08-5.451-11.717-5.646-3.579-.147-7.086.474-10.31 2.304-2.292 1.296-3.891 3.226-5.411 5.264-.412.555-.75.795-1.439.379a9.924 9.924 0 0 0-2.311-1.025c-2.426-.705-4.805-.214-7.16.439-4.354 1.213-7.562 3.8-9.406 7.967-.32.72-.48 1.511-.728 2.31-.451-.086-.837-.189-1.229-.23a9.301 9.301 0 0 0-1.216-.023c-4.07.161-7.75 1.47-10.714 4.25-2.365 2.222-4.427 4.631-5.219 8.078-1.031 4.491-.376 8.639 1.208 12.792.096.248.125.524.182.786-.316.032-.661.164-.938.083-1.621-.476-2.98-1.342-3.989-2.74-.358-.501-.824-.935-1.296-1.334-2.212-1.856-4.926-2.751-7.581-3.619-3.675-1.198-7.536-.906-11.231-.216-2.52.471-4.97 1.662-7.268 2.874-1.725.916-3.324 2.224-4.696 3.633-1.684 1.726-2.906 3.781-3.663 6.174C.76 54.891-.168 57.484.028 60.389c.122 1.807.457 3.584 1.43 4.99 1.762 2.551 4.517 3.732 7.465 4.443 1.808.438 3.621.855 5.411 1.356.263.075.62.585.576.833-.146.855-.367 1.718-.703 2.518-1.087 2.583-2.353 5.066-2.764 7.922-.432 3.004-.794 5.941 1.398 8.412.897 1.008 2.03 1.918 3.23 2.531 3.082 1.57 6.548 1.551 9.847 1.506 2.977-.038 5.999-.775 8.886-1.594 2.575-.733 4.992-1.924 7.227-3.568 2.089-1.536 3.935-3.266 5.638-5.173 2.563-2.86 4.062-6.411 5.611-9.821 1.998-4.392 4.529-8.089 8.9-10.297.938-.473 1.688-1.355 2.957-1.184 2.178.299 4.383.665 6.565.6 3.039-.089 6.11-.32 9.085-.914a38.856 38.856 0 0 0 10.475-3.68c2.863-1.502 5.789-2.829 8.374-4.857a48.577 48.577 0 0 0 7.068-6.76c1.155-1.356 2.681-2.077 4.187-2.462 2.037-.525 4.039-.437 5.036-.474 1.656-.063 3.325.123 4.629 1.338.86.803 1.617 1.716 2.496 2.495 1.119.997 2.225 2.046 3.49 2.827 2.985 1.84 6.331 2.68 9.805 2.856 2.063.107 4.191.177 6.203-.216 2.705-.529 5.463-1.097 7.803-2.773 1.482-1.057 3.172-1.857 4.535-3.043 3.145-2.746 5.439-6.131 6.621-10.167.938-3.198 2.031-6.39-.6-9.447-1.779-2.057-3.869-3.549-6.439-4.292-1.738-.505-3.559-.733-5.342-1.09-1.212-.244-1.33-.414-.793-1.511zM43.13 32.767c.646-1.887 2.201-3.566 3.65-5.04 3.162-3.216 7.112-4.602 11.633-4.321.691.042 1.09.236 1.365.964.083.222.175.436.275.638.96 1.982 2.631 3.208 4.794 3.916 4.703 1.539 8.801.126 12.695-2.449 2.117-1.403 3.613-3.298 4.667-5.594.952-2.085.793-4.088-.324-6.02a2.491 2.491 0 0 1-.265-.595c-.175-.6-.004-1.108.461-1.76 1.927-2.693 4.281-4.808 7.484-5.735 3.661-1.062 7.483-1.577 11.033.056 2.221 1.023 4.144 2.769 6.05 4.368 1.022.856 1.731 2.088 2.572 3.153.626.791.517 1.436-.161 2.234a21.481 21.481 0 0 0-1.666 2.219c-.318.484-.613.98-.885 1.489-.871 1.649-2.144 2.829-3.681 3.773-2.163 1.322-4.319 2.654-6.519 3.906-1.615.918-3.3 1.722-4.959 2.566-1.335.671-2.68 1.323-4.094 2.016.108-1.056.205-1.984.299-2.91-.133-.04-.264-.075-.396-.116-.526.768-1.008 1.57-1.591 2.291-1.241 1.547-2.407 3.192-3.844 4.537-1.887 1.77-4.124 2.876-6.885 2.53-2.261-.282-4.543-.414-6.819-.604-.301-.026-.605-.021-.908-.028l-.16.349c.613.435 1.227.865 2.053 1.445-1.639.602-3.105 1.149-4.574 1.68-3.005 1.082-5.98 2.264-9.033 3.196-2.73.836-5.55 1.389-8.328 2.063-.394.1-.783.215-1.179.281-.031.006-.061.008-.091.014-1.346.199-1.762-.598-2.294-1.727-2.007-4.242-1.825-8.575-.375-12.785zm51.6 23.87c-8.776 5.05-18.164 7.168-28.287 5.41 12.535-6.959 25.492-12.808 39.893-15.96-3.283 4.489-7.084 7.948-11.606 10.55zm50.578-28.285c.246.95 1.33 1.686 2.221 2.408-.51-1.863-.902-3.625-.084-5.73 1.49.27 3.098.4 4.594.873 1.645.527 3.238 1.184 4.658 2.322 1.934 1.548 2.809 3.424 2.678 5.843-.121 2.273-.74 4.411-1.771 6.433-1.326 2.602-2.857 5.082-5.109 6.984-2.447 2.078-5.139 3.771-8.363 4.422-1.221.245-2.436.551-3.662.76-3.275.561-6.053-.832-8.705-2.428-1.57-.943-2.994-2.137-4.431-3.275-3.423-2.707-7.146-4.822-11.604-4.878-2.173-.028-4.378.512-6.524 1-2.92.663-5.83 1.41-8.681 2.322-3.442 1.1-6.825 2.365-10.206 3.637-2.143.806-4.213 1.797-6.346 2.625-2.031.79-4.127 1.411-6.145 2.225-1.43.574-2.791 1.32-4.158 2.033-1.947 1.021-3.869 2.086-5.814 3.116-3.878 2.057-7.798 4.04-11.632 6.175-2.086 1.162-4.03 2.574-6.036 3.873-.127.086-.239.191-.358.287.091.068.182.133.271.204l3.847-1.412c-.108.329-.135.528-.227.677-.762 1.191-1.656 2.314-2.283 3.572-1.313 2.622-2.264 5.445-3.775 7.936-1.789 2.936-3.945 5.623-6.719 7.816-2.32 1.832-4.948 2.871-7.669 3.714-1.631.504-3.399.585-5.116.774-2.704.305-5.43.43-8.084-.307-4.826-1.336-6.7-4.369-5.945-9.148.291-1.834 1.32-3.544 1.906-5.349a82.562 82.562 0 0 0 1.647-5.774c.68-2.741.032-5.315-1.36-7.678-.383-.648-1.227-1.027-1.858-1.529-.084.101-.17.196-.257.297.332.582.716 1.141.975 1.755.251.598.497 1.247.529 1.886.086 1.707-.533 2.162-2.219 1.98-2.92-.314-5.578-1.214-7.804-3.199-1.984-1.772-3.057-3.883-3.033-6.656.026-3.807.912-7.313 2.89-10.543 1.501-2.448 3.568-4.42 6.119-5.597 2.767-1.276 5.711-2.097 8.887-2.143 3.081-.042 5.992.596 8.94 1.27 1.826.418 3.159 1.476 4.31 2.86.661.791 1.321 1.58 2.015 2.344 1.631 1.813 3.863 2.178 6.098 2.299 1.125.063 2.238.031 3.34-.074.451-.043.899-.099 1.345-.166 2.092-.313 4.142-.869 6.168-1.543.332-.11.696-.234 1.085-.365 4.227-1.404 8.452-2.822 12.669-4.264.782-.264 1.54-.631 2.267-1.029 2.197-1.191 4.496-1.2 6.922-.974 3.453.325 6.396-1.165 8.359-3.838 1.445-1.972 3.361-2.844 5.347-3.846 2.91-1.467 5.797-2.979 8.71-4.442 2.643-1.33 5.332-2.576 7.959-3.938 2.178-1.126 4.295-2.37 6.441-3.557.306-.171.631-.313.946-.468-.046-.119-.087-.237-.134-.354l-4.057 1.489-.175-.371c.845-1.326 1.674-2.657 2.54-3.97 1.387-2.101 2.627-4.333 4.248-6.239 1.665-1.961 3.61-3.724 5.615-5.351 3.41-2.758 7.5-4.01 11.785-4.471a63.604 63.604 0 0 1 9.006-.324c2.09.071 4.152.791 5.742 2.242.709.653 1.195 1.652 1.537 2.584 1.721 4.721-.533 8.671-2.76 12.486-1.824 3.114-2.383 6.312-1.512 9.707z"/><linearGradient id="j" gradientUnits="userSpaceOnUse" x1="-254.894" y1="-7.006" x2="-182.267" y2="-7.006" gradientTransform="rotate(-20.149 20.953 -816.652)"><stop offset=".575" stop-color="#ffc36c"/><stop offset="1" stop-color="#faf6b4"/></linearGradient><path fill-rule="evenodd" clip-rule="evenodd" fill="url(#j)" d="M109.061 16.581a21.481 21.481 0 0 0-1.666 2.219c-.318.484-.613.98-.885 1.489-.871 1.649-2.144 2.829-3.681 3.773-2.163 1.322-4.319 2.654-6.519 3.906-1.615.918-3.3 1.722-4.959 2.566-1.335.671-2.68 1.323-4.094 2.016.108-1.056.205-1.984.299-2.91-.133-.04-.264-.075-.396-.116-.526.768-1.008 1.57-1.591 2.291-1.241 1.547-2.407 3.192-3.844 4.537-1.887 1.77-4.124 2.876-6.885 2.53-2.261-.282-4.543-.414-6.819-.604-.301-.026-.605-.021-.908-.028l-.16.349c.613.435 1.227.865 2.053 1.445-1.639.602-3.105 1.149-4.574 1.68-3.005 1.082-5.98 2.264-9.033 3.196-2.73.836-5.55 1.389-8.328 2.063-.394.1-.783.215-1.179.281-.031.006-.061.008-.091.014-1.346.199-1.762-.598-2.294-1.727-2.009-4.241-1.827-8.574-.376-12.784.646-1.887 2.201-3.566 3.65-5.04 3.162-3.216 7.112-4.602 11.633-4.321.691.042 1.09.236 1.365.964.083.222.175.436.275.638.96 1.982 2.631 3.208 4.794 3.916 4.703 1.539 8.801.126 12.695-2.449 2.117-1.403 3.613-3.298 4.667-5.594.952-2.085.793-4.088-.324-6.02a2.491 2.491 0 0 1-.265-.595c-.175-.6-.004-1.108.461-1.76 1.927-2.693 4.281-4.808 7.484-5.735 3.661-1.062 7.483-1.577 11.033.056 2.221 1.023 4.144 2.769 6.05 4.368 1.022.856 1.731 2.088 2.572 3.153.627.789.517 1.434-.16 2.233z"/><path fill-rule="evenodd" clip-rule="evenodd" fill="#FFF" d="M109.104 21.686c.845-1.326 1.674-2.657 2.54-3.969 1.387-2.103 2.627-4.334 4.248-6.24 1.665-1.961 3.609-3.725 5.615-5.349 3.41-2.759 7.5-4.011 11.785-4.473 2.982-.32 6.01-.425 9.006-.326 2.092.072 4.152.792 5.742 2.244.709.652 1.197 1.653 1.537 2.584 1.721 4.719-.535 8.673-2.76 12.485-1.824 3.118-2.383 6.313-1.51 9.709.246.951 1.334 1.686 2.225 2.406-.516-1.862-.906-3.622-.088-5.728 1.49.27 3.1.397 4.592.874 1.646.524 3.24 1.182 4.66 2.318 1.934 1.549 2.809 3.425 2.678 5.845-.121 2.273-.74 4.411-1.771 6.433-1.33 2.602-2.857 5.082-5.105 6.986-2.451 2.076-5.143 3.77-8.365 4.418-1.223.247-2.438.553-3.664.764-3.275.561-6.055-.834-8.709-2.43-1.566-.941-2.989-2.137-4.429-3.277-3.423-2.705-7.145-4.819-11.603-4.876-2.171-.028-4.377.51-6.524 1-2.92.663-5.83 1.41-8.681 2.322-3.44 1.1-6.825 2.367-10.206 3.637-2.141.807-4.213 1.799-6.345 2.625-2.03.789-4.127 1.411-6.147 2.225-1.428.574-2.789 1.32-4.154 2.033-1.949 1.018-3.873 2.087-5.814 3.116-3.881 2.057-7.8 4.042-11.634 6.175-2.086 1.16-4.028 2.574-6.036 3.875-.127.082-.239.188-.359.285l.271.199c1.229-.449 2.457-.898 3.848-1.409-.11.331-.135.53-.229.681-.762 1.189-1.655 2.313-2.282 3.571-1.313 2.62-2.263 5.442-3.775 7.933-1.787 2.939-3.947 5.625-6.719 7.818-2.32 1.832-4.948 2.873-7.667 3.716-1.631.504-3.401.583-5.114.773-2.706.304-5.431.428-8.086-.308-4.827-1.336-6.701-4.367-5.946-9.149.291-1.835 1.32-3.543 1.906-5.345a83.164 83.164 0 0 0 1.647-5.776c.681-2.742.031-5.316-1.361-7.679-.381-.648-1.226-1.027-1.857-1.529-.084.101-.17.196-.255.295.329.582.716 1.144.973 1.756.252.602.5 1.25.529 1.887.086 1.707-.532 2.162-2.219 1.98-2.921-.313-5.578-1.214-7.804-3.199-1.986-1.773-3.055-3.883-3.035-6.656.029-3.807.913-7.311 2.891-10.543 1.499-2.447 3.566-4.422 6.116-5.597 2.771-1.276 5.714-2.097 8.89-2.141 3.079-.044 5.991.592 8.939 1.267 1.827.418 3.158 1.479 4.312 2.862.658.79 1.321 1.58 2.01 2.346 1.633 1.81 3.866 2.176 6.101 2.297 3.731.206 7.127-.775 10.649-1.945 5.58-1.557 14.953-5.204 15.692-5.583 3.76-1.909 5.163-1.239 7.584-1.013 3.455.323 5.975-1.023 7.938-3.698 1.448-1.972 3.654-2.857 5.639-3.859 2.912-1.465 5.799-2.98 8.711-4.444 2.646-1.326 5.332-2.574 7.959-3.935 2.177-1.128 4.297-2.372 6.441-3.558.306-.17.631-.313.946-.468-.046-.119-.09-.238-.136-.355l-4.054 1.488c-.06-.126-.119-.247-.177-.371z"/><linearGradient id="k" gradientUnits="userSpaceOnUse" x1="-219.18" y1="2.124" x2="-221.063" y2="-15.366" gradientTransform="rotate(-20.149 20.953 -816.652)"><stop offset=".575" stop-color="#ffc36c"/><stop offset="1" stop-color="#faf6b4"/></linearGradient><path fill-rule="evenodd" clip-rule="evenodd" fill="url(#k)" d="M102.643 10.68c-2.998-3.673-7.537-3.518-7.537-3.518-5.219-.563-9.57 2.839-9.57 2.839-1.024.67-3.033 3.156-3.899 4.257.054.191.143.386.266.597 1.119 1.931 1.276 3.936.325 6.019-1.053 2.295-2.553 4.193-4.668 5.594-3.895 2.577-7.992 3.989-12.695 2.451-2.162-.709-3.833-1.934-4.793-3.916-1.624-.028-4.061.039-5.867.558 0 0-3.885.248-7.185 3.785 0 0-3.512 3.528-3.455 6.896 0 0-.198 4.198.276 5.733.467 1.503-.009.44 2.068 5.282.398-.068.787-.183 1.181-.279 2.779-.678 5.593-1.228 8.328-2.063 3.051-.936 6.025-2.118 9.03-3.199 1.473-.533 3.59-1.311 5.229-1.911-.826-.581-2.094-.778-2.707-1.211-.029-.028-.076-.241.16-.353.301.009.584.147.889.213 2.228.49 5.279.48 7.541.762 2.76.348 5.386-1.543 7.271-3.314 1.438-1.346 2.29-2.785 3.159-4.026.53-.76.661-1.591 1.187-2.358.211-.122.359.018.397.113-.093.93-.654 2.358-.762 3.416 1.412-.695 3.22-1.849 4.556-2.522 1.66-.84 3.344-1.645 4.961-2.563 2.199-1.252 4.357-2.586 6.516-3.907 1.539-.945 2.813-2.122 3.686-3.772.269-.51.563-1.003.882-1.491-3.076-6.5-4.77-8.112-4.77-8.112z"/><path fill-rule="evenodd" clip-rule="evenodd" fill="#EEAA59" d="M109.061 16.581a21.481 21.481 0 0 0-1.666 2.219c-3.072-6.503-4.767-8.115-4.767-8.115-3-3.674-7.538-3.514-7.538-3.514-5.219-.565-9.57 2.836-9.57 2.836-1.025.671-3.031 3.156-3.898 4.258-.175-.6-.004-1.108.461-1.76 1.927-2.693 4.281-4.808 7.484-5.735 3.661-1.062 7.483-1.577 11.033.056 2.221 1.023 4.144 2.769 6.05 4.368 1.022.856 1.731 2.088 2.572 3.153.626.79.516 1.435-.161 2.234z"/><path fill-rule="evenodd" clip-rule="evenodd" fill="#FFC26B" d="M66.443 62.047c12.535-6.959 25.489-12.811 39.893-15.96-3.283 4.489-7.084 7.948-11.605 10.55-8.778 5.05-18.165 7.168-28.288 5.41z"/><path fill-rule="evenodd" clip-rule="evenodd" fill="#EEAA59" d="M60.054 25.007c-1.624-.027-4.06.039-5.866.56 0 0-3.888.248-7.186 3.785 0 0-3.062 3.391-3.454 6.895 0 0-.834 6.406 2.343 11.017-.031.006-.061.008-.091.014-1.346.199-1.762-.598-2.294-1.727-2.009-4.241-1.827-8.574-.376-12.784.646-1.887 2.201-3.566 3.65-5.04 3.162-3.216 7.112-4.602 11.633-4.321.691.042 1.09.236 1.365.964.084.222.176.436.276.637z"/><path fill-rule="evenodd" clip-rule="evenodd" fill="#EEAD5C" d="M100.173 47.933l5.245-1.391s.1.003.049.076c-.917 1.309-10.28 14.001-29.391 15.535 0 0 18.804-5.596 23.492-13.792.186-.328.605-.428.605-.428z"/><radialGradient id="l" cx="-222.332" cy="-20.631" r="6.848" fx="-229.18" fy="-20.585" gradientTransform="rotate(-20.149 20.953 -816.652)" gradientUnits="userSpaceOnUse"><stop offset="0" stop-color="#fff"/><stop offset="1" stop-color="#020303"/></radialGradient><path fill-rule="evenodd" clip-rule="evenodd" fill="url(#l)" d="M75.031 12.07c.383 4.904-6.502 12.695-14.02 8.482.912-2.922 4.446-9.511 14.02-8.482z"/><radialGradient id="m" cx="-241.06" cy="-.573" r="1.435" gradientTransform="matrix(.9388 -.3444 .3846 1.0485 282.301 -42.41)" gradientUnits="userSpaceOnUse"><stop offset=".59" stop-color="#f08f33"/><stop offset=".883" stop-color="#b86a24"/></radialGradient><path fill-rule="evenodd" clip-rule="evenodd" fill="url(#m)" d="M56.732 39.913c.223.613-.105 1.441-.653 1.644-.547.202-1.318-.168-1.542-.782-.228-.612.102-1.492.649-1.696.548-.201 1.32.223 1.546.834z"/><linearGradient id="n" gradientUnits="userSpaceOnUse" x1="-241.085" y1="-6.84" x2="-242.023" y2="-6.117" gradientTransform="rotate(-20.149 20.953 -816.652)"><stop offset="0" stop-color="#f09339"/><stop offset="1" stop-color="#b76018"/></linearGradient><path fill-rule="evenodd" clip-rule="evenodd" fill="url(#n)" d="M54.364 33.922c.163.445-.031.925-.436 1.073-.402.148-.864-.094-1.026-.539-.163-.443.033-.923.436-1.073.403-.146.863.095 1.026.539z"/><radialGradient id="o" cx="-246.82" cy="-4.417" r=".858" gradientTransform="rotate(-20.149 20.953 -816.652)" gradientUnits="userSpaceOnUse"><stop offset=".514" stop-color="#f09339"/><stop offset="1" stop-color="#b76018"/></radialGradient><circle fill-rule="evenodd" clip-rule="evenodd" fill="url(#o)" cx="49.169" cy="38.306" r=".858"/><radialGradient id="p" cx="-171.171" cy="-13.965" r="1.569" gradientTransform="matrix(.9885 -.3626 .3748 1.0215 272.44 -33.93)" gradientUnits="userSpaceOnUse"><stop offset=".431" stop-color="#f08f33"/><stop offset=".861" stop-color="#b86a24"/></radialGradient><path fill-rule="evenodd" clip-rule="evenodd" fill="url(#p)" d="M97.25 14.738c-.186-.503-.027-1.023.354-1.161.379-.141.838.154 1.02.656.186.504.025 1.022-.352 1.163-.382.138-.837-.156-1.022-.658z"/><radialGradient id="q" cx="-197.07" cy="-5.955" r="1.844" gradientTransform="rotate(-20.149 20.953 -816.652)" gradientUnits="userSpaceOnUse"><stop offset=".431" stop-color="#f08f33"/><stop offset=".861" stop-color="#b86a24"/></radialGradient><path fill-rule="evenodd" clip-rule="evenodd" fill="url(#q)" d="M96.17 19.899c.198.542.012 1.111-.42 1.269s-.938-.154-1.137-.697c-.201-.542-.013-1.106.418-1.265.432-.159.94.151 1.139.693z"/><radialGradient id="r" cx="-190.757" cy="-4.123" r="1.76" gradientTransform="rotate(-20.149 20.953 -816.652)" gradientUnits="userSpaceOnUse"><stop offset=".431" stop-color="#f08f33"/><stop offset=".861" stop-color="#b86a24"/></radialGradient><path fill-rule="evenodd" clip-rule="evenodd" fill="url(#r)" d="M102.695 18.986c.175.477-.173 1.044-.777 1.262-.604.221-1.232.017-1.409-.462-.175-.475.174-1.043.775-1.264.603-.222 1.238-.015 1.411.464z"/><path fill-rule="evenodd" clip-rule="evenodd" fill="#E1F0FD" d="M148.638 12.131s-.105 1.217.563.145c0 0 2.262-7.546-3.49-9.521 0 0-.725-.05-.223.473 0 0 4.441 2.144 3.15 8.903zM131.916 48.483s-1.842-.741-.352.442c0 0 3.922 3.826 9.627 2.989 0 0 7.953-.913 12.459-6.419 0 0 4.084-4.956 4.979-9.681 0 0 1.031-5.096-1.535-6.313 0 0-1.305-1.015-.436.944 0 0 2.02 5.193-.053 8.114 0 0-2.998 6.285-8.783 9.155-5.785 2.869-9.197 2.35-9.197 2.35s-3.096.234-6.709-1.581zM4.057 54.998s.172-1.446-.448-.152c-.621 1.293-.214 5.738-.194 6.006.018.27.144 1.36.888 2.425 0 0 .749 1.61 3.812 3.001 0 0 4.367 1.621.541-.671-.001-.001-3.76-2.431-4.599-10.609zM14.849 85.928s-.031-1.168.471-.014c0 0 .296 2.522 1.803 3.736 0 0 .984.976-.298.422 0 0-1.712-1.06-1.976-4.144zM45.027 82.283s1.484-1.527.357.223c0 0-2.708 5.039-7.519 6.922 0 0-1.454.534.059-.373 0 0 3.437-2.953 7.103-6.772z"/><path fill-rule="evenodd" clip-rule="evenodd" d="M123.605 8.32c.05.139-.099.322-.332.408-.232.084-.467.042-.518-.097-.048-.14.1-.321.334-.407.234-.086.466-.043.516.096z"/><ellipse transform="rotate(-41.175 126.135 6.865)" fill-rule="evenodd" clip-rule="evenodd" cx="126.144" cy="6.866" rx=".453" ry=".268"/><path fill-rule="evenodd" clip-rule="evenodd" d="M120.011 11.377s1.214-.99 2.863-1.245c0 0 .448-.042.064.17 0 0-2.456 1.042-2.716 1.562-.142.285-.903.043-.211-.487zM117.287 14.787s1.283-1.401 3.22-2.001c0 0 .528-.126.108.198 0 0-2.768 1.68-2.99 2.349-.123.37-1.079.212-.338-.546zM116.415 18.015s.956-1.392 2.591-2.16c0 0 .453-.178.117.16 0 0-2.23 1.827-2.342 2.442-.062.339-.924.322-.366-.442z"/><ellipse transform="rotate(25.657 152.925 27.528)" fill-rule="evenodd" clip-rule="evenodd" cx="152.923" cy="27.526" rx=".524" ry=".238"/><path fill-rule="evenodd" clip-rule="evenodd" d="M154.05 30.409c.281.24.42.532.314.652-.104.122-.414.026-.693-.213-.275-.236-.414-.53-.311-.649.108-.124.419-.028.69.21zM154.025 32.733s-.354-.298-.227.083c0 0 .775 2.116.961 2.923 0 0 .463 1.857.711.457 0 .001.256-.612-1.445-3.463zM153.427 35.045s-.371-.432-.293.057c0 0 .523 2.725.59 3.745 0 0 .191 2.348.775.693.001 0 .432-.691-1.072-4.495zM152.263 40.092s-.037-.187-.096-.033c0 0-.301.878-.447 1.187 0 0-.334.715.109.329.001 0 .241-.129.434-1.483zM144.441 45.412s-.859-.384.217-.447c0 0 4.775.4 5.945-1.438 0 0 .982-1.553.449.141 0 0-.238 2.252-6.611 1.744z"/><ellipse transform="rotate(-20.166 16.867 62.609)" cx="16.86" cy="62.603" rx=".456" ry=".402"/><path d="M17.123 59.383c-.026.285-.365.48-.757.444-.391-.035-.687-.294-.661-.575.028-.283.366-.48.757-.441.392.035.687.291.661.572z"/><ellipse transform="rotate(5.19 46.547 72.66)" fill-rule="evenodd" clip-rule="evenodd" cx="46.534" cy="72.683" rx=".444" ry=".221"/><path fill-rule="evenodd" clip-rule="evenodd" d="M46.531 74.81c-.01.142-.386.228-.833.189-.451-.04-.806-.188-.792-.332.014-.147.389-.231.836-.192.448.038.802.189.789.335zM41.982 78.969s2.471-.207 3.718-1.787c0 0 .792-1.084-.219-.193 0 0-1.552 1.394-2.911 1.49 0 0-1.757.191-.588.49zM39.941 82.313s1.608-.277 3.513-1.859c.006.018.929-1.106-.287-.219 0 0-1.708 1.447-3.063 1.529 0 0-1.368.322-.163.549zM34.684 86.705s-1.364-.297.159-.616c0 0 2.625-.347 4.289-2.075 0 0 1.956-1.494.365.328-.001 0-2.225 2.24-4.813 2.363z"/><ellipse transform="rotate(-20.593 9.585 65.533)" fill-rule="evenodd" clip-rule="evenodd" cx="9.586" cy="65.53" rx=".18" ry=".158"/><path fill-rule="evenodd" clip-rule="evenodd" d="M8.386 63.761c.037.269-.028.498-.146.513-.116.016-.238-.187-.273-.455-.038-.271.029-.498.145-.513.115-.017.237.188.274.455zM7.109 61.559s-.568-2.464.034-3.767c0 0 .868-1.494.438.273 0 0-.568 2.525-.255 3.414-.001 0 .184 1.07-.217.08zM6.036 57.574s-.262-2.739.685-4.105c0 0 1.301-1.549.479.342 0 0-1.116 2.701-.889 3.7.001 0 .038 1.187-.275.063zM5.375 54.018s.263-2.746 1.449-3.903c0 0 1.568-1.275.405.423 0 0-1.606 2.445-1.571 3.469 0-.001-.186 1.172-.283.011zM8.561 47.195s2.26-3.267 6.221-3.441c0 0 1.684.306-.153.762 0 0-3.518.152-5.568 2.654.001 0-.82 1.086-.5.025zM142.365 18.407c-.533.001-.971.536-.969 1.2.002.662.436 1.196.973 1.199.537-.003.971-.539.971-1.202-.001-.661-.436-1.199-.975-1.197zm.361 1.206c0 .267-.15.484-.332.486-.186-.003-.334-.22-.334-.486 0-.267.15-.485.332-.483.186-.002.334.216.334.483z"/></g></svg>