<?xml version="1.0" encoding="utf-8"?>
<!-- Generator: Adobe Illustrator 16.0.0, SVG Export Plug-In . SVG Version: 6.00 Build 0)  -->
<!DOCTYPE svg PUBLIC "-//W3C//DTD SVG 1.1//EN" "http://www.w3.org/Graphics/SVG/1.1/DTD/svg11.dtd">
<svg version="1.1" id="Calque_1" xmlns="http://www.w3.org/2000/svg" xmlns:xlink="http://www.w3.org/1999/xlink" x="0px" y="0px"
	 width="29.58px" height="31.74px" viewBox="0 0 29.58 31.74" enable-background="new 0 0 29.58 31.74" xml:space="preserve">
<path fill-rule="evenodd" clip-rule="evenodd" fill="#21ACE7" d="M29.025,27.603c-0.919,0.875-1.855,1.749-2.879,2.493
	c-1.188,0.862-2.552,1.38-4.032,1.524c-0.545,0.053-1.093,0.131-1.638,0.117c-1.436-0.035-2.821-0.342-4.165-0.854
	c-1.378-0.524-2.658-1.228-3.848-2.09c-0.773-0.56-1.527-1.151-2.25-1.774c-0.731-0.631-1.454-1.281-2.109-1.988
	c-0.982-1.061-1.931-2.153-2.84-3.277c-0.708-0.875-1.36-1.799-1.991-2.732c-1.18-1.749-2.112-3.628-2.697-5.658
	c-0.238-0.821-0.341-1.683-0.479-2.531c-0.064-0.397-0.066-0.805-0.097-1.208C-0.021,7.998,0.35,6.456,1.053,5.007
	c0.389-0.801,0.863-1.574,1.53-2.187c0.88-0.807,1.744-1.639,2.691-2.359c0.97-0.737,1.943-0.546,2.842,0.258
	c0.997,0.893,1.663,2.036,2.341,3.164c0.395,0.655,0.76,1.336,1.047,2.043c0.628,1.548,0.367,2.923-1.058,4.022
	c-0.651,0.503-1.313,0.999-1.918,1.553c-0.624,0.571-0.879,1.291-0.735,2.17c0.233,1.429,0.976,2.598,1.818,3.709
	c0.697,0.918,1.466,1.783,2.211,2.664c1.03,1.215,2.204,2.273,3.614,3.02c0.945,0.5,1.948,0.673,2.906-0.039
	c0.115-0.086,0.217-0.19,0.325-0.287c0.741-0.66,1.448-1.366,2.233-1.971c0.938-0.723,2.005-0.684,3.055-0.236
	c1.024,0.437,1.88,1.131,2.703,1.865c0.532,0.476,1.104,0.912,1.596,1.426c0.549,0.575,1.086,1.168,1.27,1.999
	C29.681,26.523,29.506,27.144,29.025,27.603z"/>
</svg>
