<svg xmlns="http://www.w3.org/2000/svg" width="29.58" height="31.74" viewBox="0 0 29.58 31.74"><path fill-rule="evenodd" clip-rule="evenodd" fill="#21ACE7" d="M29.025 27.603c-.919.875-1.855 1.749-2.879 2.493a8.138 8.138 0 0 1-4.032 1.524c-.545.053-1.093.131-1.638.117-1.436-.035-2.821-.342-4.165-.854a16.6 16.6 0 0 1-3.848-2.09 34.039 34.039 0 0 1-2.25-1.774c-.731-.631-1.454-1.281-2.109-1.988a65.022 65.022 0 0 1-2.84-3.277 39.538 39.538 0 0 1-1.991-2.732c-1.18-1.749-2.112-3.628-2.697-5.658-.238-.821-.341-1.683-.479-2.531-.064-.397-.066-.805-.097-1.208-.021-1.627.35-3.169 1.053-4.618.389-.801.863-1.574 1.53-2.187.88-.807 1.744-1.639 2.691-2.359.97-.737 1.943-.546 2.842.258.997.893 1.663 2.036 2.341 3.164.395.655.76 1.336 1.047 2.043.628 1.548.367 2.923-1.058 4.022-.651.503-1.313.999-1.918 1.553-.624.571-.879 1.291-.735 2.17.233 1.429.976 2.598 1.818 3.709.697.918 1.466 1.783 2.211 2.664 1.03 1.215 2.204 2.273 3.614 3.02.945.5 1.948.673 2.906-.039.115-.086.217-.19.325-.287.741-.66 1.448-1.366 2.233-1.971.938-.723 2.005-.684 3.055-.236 1.024.437 1.88 1.131 2.703 1.865.532.476 1.104.912 1.596 1.426.549.575 1.086 1.168 1.27 1.999.157.702-.018 1.323-.499 1.782z"/></svg>