<?xml version="1.0" encoding="utf-8"?>
<!-- Generator: Adobe Illustrator 16.0.0, SVG Export Plug-In . SVG Version: 6.00 Build 0)  -->
<!DOCTYPE svg PUBLIC "-//W3C//DTD SVG 1.1//EN" "http://www.w3.org/Graphics/SVG/1.1/DTD/svg11.dtd">
<svg version="1.1" id="Calque_1" xmlns="http://www.w3.org/2000/svg" xmlns:xlink="http://www.w3.org/1999/xlink" x="0px" y="0px"
	 width="88.165px" height="85.425px" viewBox="0 0 88.165 85.425" enable-background="new 0 0 88.165 85.425" xml:space="preserve">
<g id="bubles_1_">
	<g>
		
			<radialGradient id="SVGID_1_" cx="-422.937" cy="-161.7593" r="26.7107" gradientTransform="matrix(0.8031 -0.5959 0.5959 0.8031 480.6714 -74.3105)" gradientUnits="userSpaceOnUse">
			<stop  offset="0.4604" style="stop-color:#CCEDFE"/>
			<stop  offset="1" style="stop-color:#21ACE7"/>
		</radialGradient>
		<circle opacity="0.7" fill="url(#SVGID_1_)" cx="44.62" cy="47.809" r="26.711"/>
		<path fill="#FFFFFF" d="M26.186,59.467c0,0-12.289-16.778,6.098-28.284C32.284,31.184,20.526,44.898,26.186,59.467z"/>
	</g>
	<g>
		
			<radialGradient id="SVGID_2_" cx="-447.1924" cy="-149.772" r="13.5349" gradientTransform="matrix(0.8031 -0.5959 0.5959 0.8031 480.6714 -74.3105)" gradientUnits="userSpaceOnUse">
			<stop  offset="0.4604" style="stop-color:#CCEDFE"/>
			<stop  offset="1" style="stop-color:#21ACE7"/>
		</radialGradient>
		<circle opacity="0.7" fill="url(#SVGID_2_)" cx="32.284" cy="71.889" r="13.535"/>
		<path fill="#FFFFFF" d="M22.943,77.796c0,0-6.227-8.502,3.09-14.331C26.033,63.465,20.075,70.415,22.943,77.796z"/>
	</g>
	<g>
		
			<radialGradient id="SVGID_3_" cx="-430.0664" cy="-187.645" r="20.7493" gradientTransform="matrix(0.8031 -0.5959 0.5959 0.8031 480.6714 -74.3105)" gradientUnits="userSpaceOnUse">
			<stop  offset="0.4604" style="stop-color:#CCEDFE"/>
			<stop  offset="1" style="stop-color:#21ACE7"/>
		</radialGradient>
		<circle opacity="0.7" fill="url(#SVGID_3_)" cx="23.469" cy="31.268" r="20.75"/>
		<path fill="#FFFFFF" d="M9.149,40.325c0,0-9.546-13.034,4.737-21.971C13.886,18.354,4.751,29.007,9.149,40.325z"/>
	</g>
	<g>
		
			<radialGradient id="SVGID_4_" cx="-404.7148" cy="-186.9878" r="16.6875" gradientTransform="matrix(0.8031 -0.5959 0.5959 0.8031 480.6714 -74.3105)" gradientUnits="userSpaceOnUse">
			<stop  offset="0.4604" style="stop-color:#CCEDFE"/>
			<stop  offset="1" style="stop-color:#21ACE7"/>
		</radialGradient>
		<circle opacity="0.7" fill="url(#SVGID_4_)" cx="44.22" cy="16.688" r="16.688"/>
		<path fill="#FFFFFF" d="M32.705,23.972c0,0-7.679-10.482,3.809-17.669C36.513,6.303,29.168,14.87,32.705,23.972z"/>
	</g>
	<g>
		
			<radialGradient id="SVGID_5_" cx="-433.9663" cy="-136.9463" r="9.2043" gradientTransform="matrix(0.8031 -0.5959 0.5959 0.8031 480.6714 -74.3105)" gradientUnits="userSpaceOnUse">
			<stop  offset="0.4604" style="stop-color:#CCEDFE"/>
			<stop  offset="1" style="stop-color:#21ACE7"/>
		</radialGradient>
		<circle opacity="0.7" fill="url(#SVGID_5_)" cx="50.548" cy="74.308" r="9.204"/>
		<path fill="#FFFFFF" d="M44.196,78.326c0,0-4.234-5.781,2.101-9.746C46.297,68.58,42.245,73.306,44.196,78.326z"/>
	</g>
	<g>
		
			<radialGradient id="SVGID_6_" cx="-394.8584" cy="-145.9556" r="9.2043" gradientTransform="matrix(0.8031 -0.5959 0.5959 0.8031 480.6714 -74.3105)" gradientUnits="userSpaceOnUse">
			<stop  offset="0.4604" style="stop-color:#CCEDFE"/>
			<stop  offset="1" style="stop-color:#21ACE7"/>
		</radialGradient>
		<circle opacity="0.7" fill="url(#SVGID_6_)" cx="76.587" cy="43.768" r="9.204"/>
		<path fill="#FFFFFF" d="M70.234,47.787c0,0-4.234-5.782,2.102-9.747C72.336,38.04,68.283,42.767,70.234,47.787z"/>
	</g>
	<g>
		
			<radialGradient id="SVGID_7_" cx="-455.8672" cy="-166.6978" r="9.2043" gradientTransform="matrix(0.8031 -0.5959 0.5959 0.8031 480.6714 -74.3105)" gradientUnits="userSpaceOnUse">
			<stop  offset="0.4604" style="stop-color:#CCEDFE"/>
			<stop  offset="1" style="stop-color:#21ACE7"/>
		</radialGradient>
		<circle opacity="0.7" fill="url(#SVGID_7_)" cx="15.23" cy="63.465" r="9.205"/>
		<path fill="#FFFFFF" d="M8.878,67.484c0,0-4.234-5.782,2.102-9.747C10.98,57.737,6.927,62.464,8.878,67.484z"/>
	</g>
	<g>
		
			<radialGradient id="SVGID_8_" cx="-409.9517" cy="-134.4287" r="16.8296" gradientTransform="matrix(0.8031 -0.5959 0.5959 0.8031 480.6714 -74.3105)" gradientUnits="userSpaceOnUse">
			<stop  offset="0.4604" style="stop-color:#CCEDFE"/>
			<stop  offset="1" style="stop-color:#21ACE7"/>
		</radialGradient>
		<circle opacity="0.7" fill="url(#SVGID_8_)" cx="71.334" cy="62.019" r="16.83"/>
		<path fill="#FFFFFF" d="M59.719,69.365c0,0-7.742-10.57,3.844-17.82C63.563,51.544,56.152,60.187,59.719,69.365z"/>
	</g>
	<g>
		
			<radialGradient id="SVGID_9_" cx="-386.6992" cy="-170.6118" r="12.5793" gradientTransform="matrix(0.8031 -0.5959 0.5959 0.8031 480.6714 -74.3105)" gradientUnits="userSpaceOnUse">
			<stop  offset="0.4604" style="stop-color:#CCEDFE"/>
			<stop  offset="1" style="stop-color:#21ACE7"/>
		</radialGradient>
		<circle opacity="0.7" fill="url(#SVGID_9_)" cx="68.446" cy="19.105" r="12.58"/>
		<path fill="#FFFFFF" d="M59.766,24.596c0,0-5.787-7.901,2.873-13.32C62.639,11.276,57.1,17.736,59.766,24.596z"/>
	</g>
</g>
</svg>
