<?xml version="1.0" encoding="utf-8"?>
<!-- Generator: Adobe Illustrator 16.0.0, SVG Export Plug-In . SVG Version: 6.00 Build 0)  -->
<!DOCTYPE svg PUBLIC "-//W3C//DTD SVG 1.1//EN" "http://www.w3.org/Graphics/SVG/1.1/DTD/svg11.dtd">
<svg version="1.1" id="Calque_1" xmlns="http://www.w3.org/2000/svg" xmlns:xlink="http://www.w3.org/1999/xlink" x="0px" y="0px"
	 width="54.057px" height="31.563px" viewBox="0 0 54.057 31.563" enable-background="new 0 0 54.057 31.563" xml:space="preserve">
<g id="logo_toutou_1_">
	<g>
		<path display="none" fill-rule="evenodd" clip-rule="evenodd" fill="#FFFFFF" d="M-2.879,13.133l7.651,20.855l51.465-18.881
			L48.585-5.748L-2.879,13.133z M51.156,2.601c-0.068,1.107-0.404,2.121-1.003,3.061c-0.313,0.493-0.565,1.027-0.823,1.553
			c-0.179,0.365-0.14,0.421,0.263,0.502c0.593,0.119,1.198,0.194,1.776,0.362c0.855,0.247,1.551,0.743,2.142,1.427
			c0.876,1.017,0.512,2.078,0.2,3.142c-0.394,1.342-1.156,2.467-2.203,3.381c-0.452,0.395-1.014,0.66-1.508,1.012
			c-0.777,0.558-1.695,0.746-2.595,0.922c-0.669,0.131-1.376,0.107-2.063,0.072c-1.155-0.059-2.269-0.338-3.261-0.95
			c-0.421-0.26-0.789-0.608-1.16-0.94c-0.293-0.259-0.545-0.563-0.83-0.83c-0.434-0.403-0.989-0.465-1.54-0.444
			c-0.56,0.023-1.128,0.202-1.675,0.157c-0.018,0-0.031-0.001-0.047-0.004c-0.721-0.074-0.985,0.4-1.346,0.823
			c-0.705,0.829-1.488,1.572-2.35,2.248c-0.86,0.675-1.833,1.116-2.785,1.615c-1.105,0.579-2.275,0.983-3.483,1.224
			c-0.989,0.197-2.011,0.274-3.021,0.305c-0.726,0.021-1.459-0.101-2.183-0.2c-0.422-0.058-0.672,0.236-0.983,0.394
			c-1.454,0.734-2.295,1.964-2.96,3.424c-0.515,1.135-1.014,2.315-1.866,3.267c-0.566,0.634-1.18,1.21-1.875,1.72
			c-0.743,0.547-1.547,0.943-2.403,1.188c-0.96,0.271-1.965,0.518-2.955,0.529c-1.097,0.016-2.25,0.021-3.275-0.5
			c-0.399-0.204-0.776-0.507-1.074-0.842c-0.729-0.822-0.608-1.799-0.465-2.798c0.137-0.95,0.558-1.775,0.919-2.634
			c0.112-0.267,0.186-0.553,0.234-0.838c0.015-0.082-0.104-0.252-0.191-0.277c-0.595-0.166-1.198-0.305-1.799-0.451
			c-0.98-0.236-1.896-0.629-2.482-1.477c-0.324-0.469-0.435-1.059-0.476-1.66c-0.065-0.966,0.244-1.828,0.527-2.722
			c0.252-0.796,0.658-1.479,1.218-2.053c0.456-0.469,0.988-0.904,1.562-1.208c0.764-0.403,1.579-0.799,2.417-0.956
			c1.229-0.229,2.513-0.327,3.735,0.072c0.883,0.289,1.785,0.586,2.521,1.204c0.157,0.133,0.312,0.277,0.431,0.443
			c0.335,0.466,0.788,0.753,1.327,0.911c0.092,0.027,0.207-0.017,0.312-0.027c-0.019-0.087-0.029-0.179-0.061-0.262
			c-0.527-1.381-0.745-2.76-0.402-4.254c0.264-1.146,0.949-1.947,1.736-2.686c0.986-0.925,2.209-1.36,3.563-1.414
			c0.134-0.005,0.271-0.005,0.404,0.008c0.13,0.014,0.259,0.048,0.409,0.077c0.083-0.266,0.136-0.529,0.242-0.768
			c0.613-1.386,1.68-2.246,3.128-2.649c0.783-0.217,1.574-0.38,2.381-0.146c0.267,0.078,0.529,0.197,0.768,0.341
			c0.229,0.138,0.342,0.059,0.479-0.126c0.505-0.678,1.037-1.319,1.799-1.75c1.072-0.608,2.238-0.815,3.43-0.766
			c1.541,0.064,2.817,0.808,3.896,1.877c0.403,0.4,0.738,0.867,1.098,1.296c0.352-0.415,0.71-0.837,1.067-1.259
			c0.48-0.566,1.084-0.974,1.709-1.36c1.255-0.778,2.632-1.26,4.036-1.673c0.34-0.099,0.712-0.097,1.069-0.126
			c0.556-0.045,1.114-0.115,1.672-0.104c1.351,0.026,2.657,0.313,3.86,0.933C50.986,1.265,51.203,1.893,51.156,2.601z"/>
		<path fill-rule="evenodd" clip-rule="evenodd" d="M49.33,7.214c0.258-0.526,0.51-1.06,0.823-1.553
			c0.599-0.939,0.935-1.954,1.003-3.061c0.047-0.708-0.17-1.336-0.813-1.667c-1.203-0.62-2.51-0.907-3.86-0.933
			c-0.558-0.012-1.116,0.059-1.672,0.104c-0.357,0.029-0.729,0.027-1.069,0.126c-1.404,0.413-2.781,0.895-4.036,1.673
			c-0.625,0.386-1.229,0.794-1.709,1.36c-0.357,0.422-0.716,0.844-1.067,1.259c-0.359-0.429-0.694-0.896-1.098-1.296
			c-1.079-1.07-2.355-1.813-3.896-1.877c-1.191-0.049-2.357,0.158-3.43,0.766c-0.762,0.431-1.293,1.073-1.799,1.75
			c-0.137,0.185-0.25,0.264-0.479,0.126c-0.239-0.144-0.501-0.263-0.768-0.341c-0.807-0.234-1.598-0.071-2.381,0.146
			c-1.448,0.403-2.515,1.264-3.128,2.649c-0.106,0.239-0.16,0.502-0.242,0.768c-0.15-0.029-0.278-0.063-0.409-0.077
			c-0.133-0.013-0.27-0.013-0.404-0.008c-1.354,0.053-2.577,0.489-3.563,1.414c-0.787,0.739-1.472,1.54-1.736,2.686
			c-0.343,1.494-0.125,2.873,0.402,4.254c0.032,0.083,0.042,0.175,0.061,0.262c-0.105,0.011-0.22,0.055-0.312,0.027
			c-0.539-0.158-0.991-0.445-1.327-0.911c-0.119-0.167-0.274-0.311-0.431-0.443c-0.736-0.617-1.638-0.915-2.521-1.204
			c-1.222-0.398-2.506-0.301-3.735-0.072C4.895,13.3,4.08,13.696,3.316,14.099c-0.574,0.305-1.105,0.74-1.562,1.208
			c-0.56,0.573-0.966,1.257-1.218,2.053c-0.284,0.894-0.592,1.756-0.527,2.722c0.041,0.602,0.152,1.191,0.476,1.66
			c0.586,0.848,1.502,1.24,2.482,1.477c0.601,0.146,1.204,0.285,1.799,0.451c0.087,0.025,0.206,0.195,0.191,0.277
			c-0.048,0.285-0.122,0.571-0.234,0.838c-0.361,0.858-0.782,1.684-0.919,2.634c-0.144,0.999-0.264,1.976,0.465,2.798
			c0.298,0.335,0.675,0.638,1.074,0.842c1.025,0.521,2.178,0.516,3.275,0.5c0.99-0.012,1.995-0.258,2.955-0.529
			c0.856-0.244,1.66-0.641,2.403-1.188c0.695-0.51,1.309-1.086,1.875-1.72c0.852-0.951,1.351-2.132,1.866-3.267
			c0.665-1.46,1.506-2.689,2.96-3.424c0.312-0.157,0.561-0.451,0.983-0.394c0.724,0.1,1.458,0.222,2.183,0.2
			c1.011-0.03,2.032-0.107,3.021-0.305c1.208-0.24,2.378-0.645,3.483-1.224c0.952-0.499,1.925-0.94,2.785-1.615
			c0.861-0.676,1.645-1.419,2.35-2.248c0.385-0.451,0.893-0.69,1.393-0.819c0.678-0.174,1.344-0.145,1.675-0.157
			c0.551-0.021,1.106,0.041,1.54,0.444c0.285,0.268,0.537,0.571,0.83,0.83c0.371,0.332,0.739,0.681,1.16,0.94
			c0.992,0.612,2.105,0.892,3.261,0.95c0.687,0.035,1.394,0.059,2.063-0.072c0.899-0.176,1.817-0.364,2.595-0.922
			c0.494-0.352,1.056-0.617,1.508-1.012c1.047-0.914,1.81-2.039,2.203-3.381c0.312-1.063,0.676-2.125-0.2-3.142
			c-0.591-0.684-1.286-1.18-2.142-1.427c-0.578-0.168-1.184-0.244-1.776-0.362C49.19,7.636,49.151,7.579,49.33,7.214z
			 M14.343,10.897c0.215-0.627,0.732-1.186,1.214-1.676c1.051-1.069,2.365-1.53,3.869-1.437c0.23,0.014,0.362,0.079,0.454,0.321
			c0.027,0.074,0.058,0.145,0.091,0.212c0.319,0.659,0.875,1.067,1.594,1.302c1.564,0.512,2.927,0.042,4.222-0.814
			c0.704-0.466,1.201-1.097,1.552-1.86c0.316-0.693,0.264-1.359-0.108-2.002c-0.042-0.07-0.07-0.135-0.088-0.198
			c-0.058-0.2-0.001-0.369,0.153-0.585c0.64-0.896,1.423-1.599,2.489-1.907c1.218-0.353,2.489-0.524,3.669,0.019
			c0.738,0.34,1.379,0.921,2.012,1.453c0.34,0.285,0.576,0.694,0.855,1.048c0.209,0.263,0.172,0.478-0.053,0.743
			c-0.199,0.234-0.387,0.479-0.555,0.738c-0.105,0.161-0.203,0.326-0.294,0.495c-0.29,0.548-0.713,0.941-1.224,1.255
			c-0.72,0.439-1.438,0.882-2.168,1.299c-0.537,0.305-1.098,0.573-1.649,0.854c-0.444,0.223-0.892,0.44-1.361,0.67
			c0.036-0.351,0.068-0.66,0.099-0.968c-0.043-0.013-0.087-0.025-0.131-0.039c-0.176,0.255-0.336,0.522-0.529,0.762
			c-0.412,0.515-0.801,1.062-1.278,1.509c-0.627,0.588-1.372,0.957-2.29,0.841c-0.752-0.094-1.511-0.138-2.268-0.201
			c-0.1-0.009-0.202-0.007-0.302-0.009c-0.018,0.039-0.036,0.078-0.053,0.116c0.204,0.145,0.408,0.288,0.683,0.48
			c-0.545,0.2-1.033,0.382-1.521,0.559c-1,0.36-1.989,0.753-3.004,1.063c-0.908,0.278-1.846,0.462-2.77,0.687
			c-0.131,0.033-0.26,0.07-0.392,0.093c-0.01,0.002-0.02,0.003-0.03,0.005c-0.448,0.066-0.586-0.199-0.763-0.574
			C13.8,13.738,13.861,12.297,14.343,10.897z M31.503,18.835c-2.919,1.679-6.041,2.384-9.407,1.8
			c4.168-2.314,8.478-4.26,13.267-5.309C34.271,16.819,33.007,17.97,31.503,18.835z M48.323,9.429
			c0.081,0.316,0.442,0.561,0.739,0.801c-0.17-0.62-0.301-1.206-0.029-1.906c0.496,0.09,1.031,0.133,1.528,0.291
			c0.548,0.175,1.077,0.394,1.55,0.772c0.643,0.515,0.934,1.139,0.891,1.943c-0.041,0.756-0.247,1.467-0.59,2.139
			c-0.441,0.865-0.95,1.689-1.699,2.322c-0.814,0.691-1.709,1.254-2.781,1.471c-0.406,0.082-0.81,0.184-1.218,0.253
			c-1.089,0.187-2.013-0.276-2.896-0.808c-0.521-0.313-0.995-0.711-1.473-1.09c-1.139-0.899-2.377-1.603-3.859-1.622
			c-0.723-0.009-1.456,0.17-2.17,0.333c-0.971,0.22-1.939,0.469-2.887,0.771c-1.145,0.366-2.27,0.787-3.395,1.21
			c-0.712,0.269-1.4,0.598-2.109,0.873c-0.676,0.263-1.373,0.47-2.044,0.739c-0.475,0.191-0.928,0.439-1.383,0.677
			c-0.647,0.339-1.287,0.693-1.934,1.036c-1.29,0.684-2.593,1.344-3.868,2.054c-0.694,0.386-1.34,0.856-2.007,1.288
			c-0.042,0.028-0.08,0.063-0.119,0.096c0.03,0.022,0.061,0.044,0.09,0.067l1.279-0.47c-0.036,0.109-0.045,0.176-0.076,0.225
			c-0.253,0.396-0.551,0.771-0.759,1.188c-0.437,0.872-0.753,1.812-1.255,2.64c-0.595,0.976-1.312,1.869-2.234,2.599
			c-0.771,0.609-1.646,0.955-2.55,1.235c-0.542,0.168-1.13,0.194-1.701,0.258c-0.899,0.102-1.806,0.143-2.688-0.103
			C5.07,30.268,4.447,29.26,4.698,27.67c0.097-0.61,0.439-1.179,0.634-1.779c0.206-0.632,0.388-1.274,0.548-1.92
			c0.226-0.912,0.011-1.768-0.452-2.553C5.3,21.201,5.02,21.076,4.81,20.909c-0.028,0.033-0.057,0.065-0.085,0.099
			c0.11,0.193,0.238,0.379,0.324,0.584c0.083,0.198,0.165,0.414,0.176,0.627c0.029,0.567-0.177,0.719-0.738,0.658
			c-0.971-0.104-1.855-0.404-2.595-1.064c-0.66-0.589-1.017-1.291-1.009-2.213c0.009-1.266,0.303-2.432,0.961-3.506
			c0.499-0.814,1.187-1.47,2.035-1.862c0.92-0.424,1.899-0.697,2.956-0.712c1.024-0.014,1.993,0.198,2.973,0.422
			c0.607,0.139,1.05,0.491,1.433,0.951c0.22,0.264,0.439,0.525,0.67,0.779c0.542,0.604,1.285,0.725,2.028,0.766
			c0.374,0.02,0.744,0.01,1.111-0.025c0.15-0.014,0.299-0.033,0.447-0.055c0.696-0.104,1.377-0.289,2.051-0.514
			c0.11-0.037,0.231-0.078,0.361-0.121c1.406-0.467,2.811-0.939,4.213-1.418c0.26-0.088,0.512-0.21,0.754-0.342
			c0.73-0.396,1.495-0.399,2.302-0.324c1.148,0.108,2.127-0.387,2.78-1.276c0.48-0.656,1.118-0.946,1.778-1.279
			c0.968-0.488,1.928-0.991,2.896-1.478c0.879-0.442,1.772-0.856,2.647-1.31c0.724-0.375,1.428-0.788,2.142-1.183
			c0.102-0.057,0.21-0.104,0.314-0.156c-0.015-0.04-0.028-0.079-0.044-0.118l-1.35,0.495c-0.02-0.042-0.039-0.083-0.059-0.124
			c0.281-0.441,0.557-0.883,0.846-1.32c0.461-0.699,0.873-1.441,1.412-2.075c0.554-0.652,1.201-1.238,1.867-1.779
			c1.135-0.917,2.494-1.333,3.92-1.487c0.992-0.107,1.998-0.142,2.994-0.108c0.695,0.023,1.381,0.263,1.91,0.746
			c0.235,0.217,0.396,0.549,0.511,0.859c0.573,1.57-0.177,2.884-0.918,4.152C48.218,7.236,48.033,8.3,48.323,9.429z"/>
		
			<linearGradient id="SVGID_1_" gradientUnits="userSpaceOnUse" x1="-287.6699" y1="-7.1489" x2="-263.5176" y2="-7.1489" gradientTransform="matrix(0.9388 -0.3444 0.3444 0.9388 286.1055 -79.5768)">
			<stop  offset="0.5745" style="stop-color:#FFC36C"/>
			<stop  offset="1" style="stop-color:#FAF6B4"/>
		</linearGradient>
		<path fill-rule="evenodd" clip-rule="evenodd" fill="url(#SVGID_1_)" d="M36.269,5.514c-0.199,0.234-0.387,0.479-0.555,0.738
			c-0.105,0.161-0.203,0.326-0.294,0.495c-0.29,0.548-0.713,0.941-1.224,1.255c-0.72,0.439-1.438,0.882-2.168,1.299
			c-0.537,0.305-1.098,0.573-1.649,0.854c-0.444,0.223-0.892,0.44-1.361,0.67c0.036-0.351,0.068-0.66,0.099-0.968
			c-0.043-0.013-0.087-0.025-0.131-0.039c-0.176,0.255-0.336,0.522-0.529,0.762c-0.412,0.515-0.801,1.062-1.278,1.509
			c-0.627,0.588-1.372,0.957-2.29,0.841c-0.752-0.094-1.511-0.138-2.268-0.201c-0.1-0.009-0.202-0.007-0.302-0.009
			c-0.018,0.039-0.036,0.078-0.053,0.116c0.204,0.145,0.408,0.288,0.683,0.48c-0.545,0.2-1.033,0.382-1.521,0.559
			c-1,0.36-1.989,0.753-3.004,1.063c-0.908,0.278-1.846,0.462-2.77,0.687c-0.131,0.033-0.26,0.07-0.392,0.093
			c-0.01,0.002-0.02,0.003-0.03,0.005c-0.448,0.066-0.586-0.199-0.763-0.574c-0.668-1.411-0.607-2.852-0.125-4.251
			c0.215-0.627,0.732-1.186,1.214-1.676c1.051-1.069,2.365-1.53,3.869-1.437c0.23,0.014,0.362,0.079,0.454,0.321
			c0.027,0.074,0.058,0.145,0.091,0.212c0.319,0.659,0.875,1.067,1.594,1.302c1.564,0.512,2.927,0.042,4.222-0.814
			c0.704-0.466,1.201-1.097,1.552-1.86c0.316-0.693,0.264-1.359-0.108-2.002c-0.042-0.07-0.07-0.135-0.088-0.198
			c-0.058-0.2-0.001-0.369,0.153-0.585c0.64-0.896,1.423-1.599,2.489-1.907c1.218-0.353,2.489-0.524,3.669,0.019
			c0.738,0.34,1.379,0.921,2.012,1.453c0.34,0.285,0.576,0.694,0.855,1.048C36.531,5.034,36.494,5.249,36.269,5.514z"/>
		<path fill-rule="evenodd" clip-rule="evenodd" fill="#FFFFFF" d="M36.283,7.212c0.281-0.441,0.557-0.883,0.846-1.32
			c0.461-0.699,0.873-1.441,1.412-2.075c0.554-0.652,1.2-1.239,1.867-1.779c1.135-0.917,2.494-1.334,3.92-1.487
			c0.991-0.106,1.998-0.142,2.994-0.108c0.695,0.024,1.381,0.264,1.91,0.746c0.235,0.217,0.398,0.55,0.511,0.859
			c0.573,1.569-0.179,2.884-0.918,4.152c-0.606,1.037-0.792,2.1-0.502,3.229c0.082,0.316,0.443,0.561,0.739,0.8
			c-0.171-0.619-0.301-1.205-0.029-1.905c0.496,0.09,1.031,0.132,1.527,0.291c0.548,0.174,1.078,0.393,1.551,0.771
			c0.643,0.515,0.934,1.139,0.891,1.944c-0.041,0.756-0.247,1.467-0.59,2.139c-0.441,0.865-0.95,1.689-1.698,2.323
			c-0.815,0.69-1.71,1.253-2.782,1.47c-0.406,0.082-0.81,0.184-1.218,0.254c-1.089,0.186-2.013-0.277-2.896-0.809
			c-0.521-0.313-0.994-0.711-1.474-1.09c-1.138-0.899-2.376-1.603-3.858-1.622c-0.723-0.009-1.455,0.17-2.17,0.333
			c-0.971,0.22-1.939,0.469-2.887,0.771c-1.145,0.366-2.27,0.787-3.395,1.21c-0.711,0.269-1.4,0.599-2.109,0.873
			c-0.675,0.263-1.373,0.47-2.044,0.739c-0.475,0.191-0.928,0.439-1.381,0.677c-0.648,0.339-1.288,0.694-1.934,1.036
			c-1.291,0.684-2.594,1.344-3.869,2.054c-0.694,0.386-1.34,0.856-2.007,1.288c-0.042,0.027-0.08,0.063-0.12,0.096
			c0.031,0.021,0.061,0.045,0.09,0.066c0.409-0.15,0.817-0.299,1.28-0.469c-0.037,0.109-0.045,0.176-0.076,0.226
			c-0.253,0.396-0.55,0.77-0.759,1.188c-0.437,0.871-0.752,1.81-1.255,2.638c-0.594,0.978-1.313,1.87-2.234,2.6
			c-0.771,0.609-1.646,0.956-2.55,1.235c-0.542,0.168-1.131,0.194-1.701,0.258c-0.9,0.102-1.806,0.143-2.689-0.103
			C5.07,30.268,4.447,29.26,4.698,27.67c0.097-0.611,0.439-1.179,0.634-1.777c0.206-0.634,0.388-1.275,0.548-1.922
			c0.227-0.912,0.01-1.768-0.453-2.553C5.3,21.201,5.02,21.076,4.81,20.909c-0.028,0.033-0.057,0.065-0.085,0.098
			c0.109,0.194,0.238,0.38,0.324,0.584c0.084,0.2,0.166,0.415,0.176,0.628c0.029,0.567-0.177,0.719-0.738,0.658
			c-0.972-0.104-1.855-0.404-2.595-1.064c-0.661-0.59-1.016-1.291-1.009-2.213c0.01-1.266,0.304-2.432,0.961-3.506
			c0.499-0.814,1.186-1.471,2.034-1.862c0.922-0.424,1.9-0.697,2.957-0.712c1.024-0.015,1.992,0.197,2.973,0.421
			c0.607,0.139,1.05,0.492,1.434,0.951c0.219,0.264,0.439,0.525,0.668,0.781c0.543,0.602,1.286,0.723,2.029,0.764
			c1.241,0.068,2.37-0.258,3.542-0.647c1.855-0.518,4.973-1.73,5.219-1.856c1.25-0.635,1.717-0.412,2.522-0.337
			c1.149,0.107,1.987-0.34,2.639-1.23c0.482-0.656,1.216-0.95,1.875-1.283c0.969-0.487,1.93-0.991,2.897-1.478
			c0.88-0.441,1.772-0.856,2.647-1.309c0.723-0.375,1.428-0.789,2.142-1.183c0.102-0.057,0.21-0.104,0.314-0.156
			c-0.015-0.04-0.03-0.079-0.045-0.118c-0.45,0.165-0.899,0.33-1.349,0.495C36.322,7.293,36.302,7.253,36.283,7.212z"/>
		
			<linearGradient id="SVGID_2_" gradientUnits="userSpaceOnUse" x1="-275.7935" y1="-4.1138" x2="-276.4196" y2="-9.9297" gradientTransform="matrix(0.9388 -0.3444 0.3444 0.9388 286.1055 -79.5768)">
			<stop  offset="0.5745" style="stop-color:#FFC36C"/>
			<stop  offset="1" style="stop-color:#FAF6B4"/>
		</linearGradient>
		<path fill-rule="evenodd" clip-rule="evenodd" fill="url(#SVGID_2_)" d="M34.134,3.552c-0.997-1.222-2.506-1.17-2.506-1.17
			c-1.736-0.187-3.184,0.944-3.184,0.944c-0.34,0.223-1.008,1.049-1.296,1.416c0.018,0.063,0.047,0.128,0.088,0.199
			c0.372,0.642,0.425,1.309,0.108,2.001c-0.35,0.763-0.849,1.395-1.552,1.86c-1.295,0.857-2.658,1.327-4.222,0.815
			c-0.719-0.236-1.275-0.643-1.594-1.302c-0.54-0.009-1.351,0.013-1.951,0.186c0,0-1.292,0.083-2.389,1.259
			c0,0-1.168,1.173-1.149,2.293c0,0-0.066,1.396,0.092,1.907c0.155,0.5-0.003,0.146,0.688,1.756
			c0.132-0.022,0.262-0.061,0.393-0.093c0.924-0.225,1.86-0.408,2.77-0.686c1.015-0.312,2.004-0.705,3.003-1.064
			c0.49-0.177,1.194-0.436,1.739-0.636c-0.274-0.193-0.696-0.259-0.9-0.403c-0.01-0.009-0.025-0.08,0.053-0.117
			c0.1,0.003,0.194,0.049,0.295,0.071c0.741,0.163,1.755,0.16,2.508,0.253c0.918,0.116,1.791-0.513,2.418-1.102
			c0.478-0.448,0.762-0.926,1.051-1.339c0.177-0.253,0.22-0.529,0.395-0.784c0.07-0.041,0.12,0.006,0.132,0.038
			c-0.031,0.309-0.217,0.784-0.253,1.136c0.47-0.231,1.071-0.615,1.515-0.839c0.553-0.279,1.112-0.547,1.65-0.853
			c0.73-0.417,1.449-0.86,2.166-1.299c0.512-0.314,0.936-0.706,1.227-1.254c0.089-0.169,0.187-0.333,0.293-0.496
			C34.698,4.088,34.134,3.552,34.134,3.552z"/>
		<path fill-rule="evenodd" clip-rule="evenodd" fill="#EEAA59" d="M36.269,5.514c-0.199,0.234-0.387,0.479-0.555,0.738
			c-1.021-2.163-1.585-2.699-1.585-2.699c-0.997-1.222-2.507-1.168-2.507-1.168c-1.735-0.188-3.183,0.943-3.183,0.943
			c-0.341,0.223-1.008,1.049-1.296,1.416c-0.058-0.2-0.001-0.369,0.153-0.585c0.64-0.896,1.423-1.599,2.489-1.907
			c1.218-0.353,2.489-0.524,3.669,0.019c0.738,0.34,1.379,0.921,2.012,1.453c0.34,0.285,0.576,0.694,0.855,1.048
			C36.531,5.034,36.494,5.249,36.269,5.514z"/>
		<path fill-rule="evenodd" clip-rule="evenodd" fill="#FFC26B" d="M22.096,20.635c4.168-2.314,8.477-4.261,13.267-5.309
			c-1.092,1.493-2.355,2.644-3.859,3.509C28.583,20.514,25.462,21.219,22.096,20.635z"/>
		<path fill-rule="evenodd" clip-rule="evenodd" fill="#EEAA59" d="M19.971,8.316c-0.54-0.009-1.35,0.013-1.951,0.186
			c0,0-1.293,0.083-2.39,1.259c0,0-1.018,1.128-1.148,2.293c0,0-0.277,2.13,0.779,3.664c-0.01,0.002-0.02,0.003-0.03,0.005
			c-0.448,0.066-0.586-0.199-0.763-0.574c-0.668-1.411-0.607-2.852-0.125-4.251c0.215-0.627,0.732-1.186,1.214-1.676
			c1.051-1.069,2.365-1.53,3.869-1.437c0.23,0.014,0.362,0.079,0.454,0.321C19.907,8.178,19.938,8.25,19.971,8.316z"/>
		<path fill-rule="evenodd" clip-rule="evenodd" fill="#EEAD5C" d="M33.313,15.94l1.744-0.462c0,0,0.033,0,0.017,0.025
			c-0.305,0.435-3.419,4.655-9.774,5.166c0,0,6.253-1.861,7.813-4.587C33.173,15.974,33.313,15.94,33.313,15.94z"/>
		
			<radialGradient id="SVGID_3_" cx="-276.8413" cy="-11.6797" r="2.2773" fx="-279.1186" fy="-11.6645" gradientTransform="matrix(0.9388 -0.3444 0.3444 0.9388 286.1055 -79.5768)" gradientUnits="userSpaceOnUse">
			<stop  offset="0" style="stop-color:#FFFFFF"/>
			<stop  offset="1" style="stop-color:#020303"/>
		</radialGradient>
		<path fill-rule="evenodd" clip-rule="evenodd" fill="url(#SVGID_3_)" d="M24.952,4.014c0.127,1.631-2.163,4.222-4.663,2.821
			C20.593,5.863,21.768,3.672,24.952,4.014z"/>
	</g>
	
		<radialGradient id="SVGID_4_" cx="-282.8394" cy="-7.6318" r="0.4773" gradientTransform="matrix(0.9388 -0.3444 0.3846 1.0485 287.0132 -76.1013)" gradientUnits="userSpaceOnUse">
		<stop  offset="0.5904" style="stop-color:#F08F33"/>
		<stop  offset="0.883" style="stop-color:#B86A24"/>
	</radialGradient>
	<path fill-rule="evenodd" clip-rule="evenodd" fill="url(#SVGID_4_)" d="M18.867,13.273c0.074,0.204-0.035,0.479-0.217,0.547
		c-0.182,0.067-0.438-0.056-0.513-0.26c-0.076-0.204,0.034-0.496,0.216-0.564C18.535,12.929,18.792,13.07,18.867,13.273z"/>
	
		<linearGradient id="SVGID_5_" gradientUnits="userSpaceOnUse" x1="-283.0781" y1="-7.0938" x2="-283.3901" y2="-6.8534" gradientTransform="matrix(0.9388 -0.3444 0.3444 0.9388 286.1055 -79.5768)">
		<stop  offset="0" style="stop-color:#F09339"/>
		<stop  offset="1" style="stop-color:#B76018"/>
	</linearGradient>
	<path fill-rule="evenodd" clip-rule="evenodd" fill="url(#SVGID_5_)" d="M18.079,11.281c0.054,0.148-0.01,0.308-0.145,0.357
		c-0.134,0.049-0.287-0.031-0.341-0.179c-0.054-0.147,0.011-0.307,0.145-0.357C17.872,11.053,18.025,11.133,18.079,11.281z"/>
	
		<radialGradient id="SVGID_6_" cx="-284.9849" cy="-6.2876" r="0.2854" gradientTransform="matrix(0.9388 -0.3444 0.3444 0.9388 286.1055 -79.5768)" gradientUnits="userSpaceOnUse">
		<stop  offset="0.514" style="stop-color:#F09339"/>
		<stop  offset="1" style="stop-color:#B76018"/>
	</radialGradient>
	<circle fill-rule="evenodd" clip-rule="evenodd" fill="url(#SVGID_6_)" cx="16.351" cy="12.739" r="0.285"/>
	
		<radialGradient id="SVGID_7_" cx="-246.8105" cy="-14.3296" r="0.5226" gradientTransform="matrix(0.9885 -0.3626 0.3748 1.0215 281.9342 -70.2437)" gradientUnits="userSpaceOnUse">
		<stop  offset="0.4307" style="stop-color:#F08F33"/>
		<stop  offset="0.8614" style="stop-color:#B86A24"/>
	</radialGradient>
	<path fill-rule="evenodd" clip-rule="evenodd" fill="url(#SVGID_7_)" d="M32.341,4.901c-0.063-0.167-0.01-0.34,0.117-0.386
		c0.126-0.047,0.279,0.051,0.34,0.218c0.061,0.167,0.008,0.34-0.117,0.387C32.554,5.166,32.402,5.068,32.341,4.901z"/>
	
		<radialGradient id="SVGID_8_" cx="-268.4409" cy="-6.7993" r="0.6128" gradientTransform="matrix(0.9388 -0.3444 0.3444 0.9388 286.1055 -79.5768)" gradientUnits="userSpaceOnUse">
		<stop  offset="0.4307" style="stop-color:#F08F33"/>
		<stop  offset="0.8614" style="stop-color:#B86A24"/>
	</radialGradient>
	<path fill-rule="evenodd" clip-rule="evenodd" fill="url(#SVGID_8_)" d="M31.982,6.618c0.066,0.18,0.004,0.37-0.14,0.422
		s-0.312-0.051-0.378-0.232c-0.066-0.18-0.004-0.368,0.139-0.42C31.747,6.334,31.916,6.438,31.982,6.618z"/>
	
		<radialGradient id="SVGID_9_" cx="-266.3408" cy="-6.1899" r="0.5846" gradientTransform="matrix(0.9388 -0.3444 0.3444 0.9388 286.1055 -79.5768)" gradientUnits="userSpaceOnUse">
		<stop  offset="0.4307" style="stop-color:#F08F33"/>
		<stop  offset="0.8614" style="stop-color:#B86A24"/>
	</radialGradient>
	<path fill-rule="evenodd" clip-rule="evenodd" fill="url(#SVGID_9_)" d="M34.152,6.314c0.059,0.159-0.058,0.347-0.258,0.42
		c-0.201,0.073-0.41,0.005-0.469-0.154c-0.059-0.158,0.057-0.347,0.258-0.42C33.882,6.086,34.094,6.155,34.152,6.314z"/>
	<path fill-rule="evenodd" clip-rule="evenodd" fill="#E1F0FD" d="M49.43,4.035c0,0-0.035,0.405,0.188,0.048
		c0,0,0.752-2.509-1.161-3.166c0,0-0.241-0.017-0.074,0.157C48.382,1.074,49.86,1.787,49.43,4.035z"/>
	<path fill-rule="evenodd" clip-rule="evenodd" fill="#E1F0FD" d="M43.869,16.123c0,0-0.611-0.246-0.116,0.147
		c0,0,1.304,1.272,3.201,0.994c0,0,2.646-0.304,4.144-2.134c0,0,1.357-1.649,1.655-3.22c0,0,0.343-1.695-0.511-2.1
		c0,0-0.434-0.337-0.145,0.314c0,0,0.672,1.727-0.018,2.698c0,0-0.997,2.091-2.92,3.044c-1.925,0.955-3.059,0.782-3.059,0.782
		S45.071,16.727,43.869,16.123z"/>
	<path fill-rule="evenodd" clip-rule="evenodd" fill="#E1F0FD" d="M1.349,18.29c0,0,0.057-0.481-0.149-0.051
		c-0.207,0.431-0.071,1.908-0.064,1.997c0.006,0.09,0.048,0.453,0.295,0.807c0,0,0.249,0.535,1.268,0.998
		c0,0,1.452,0.539,0.18-0.223C2.878,21.818,1.628,21.01,1.349,18.29z"/>
	<path fill-rule="evenodd" clip-rule="evenodd" fill="#E1F0FD" d="M4.938,28.576c0,0-0.01-0.389,0.157-0.005
		c0,0,0.099,0.839,0.6,1.243c0,0,0.327,0.324-0.099,0.14C5.595,29.954,5.026,29.602,4.938,28.576z"/>
	<path fill-rule="evenodd" clip-rule="evenodd" fill="#E1F0FD" d="M14.974,27.363c0,0,0.494-0.508,0.119,0.074
		c0,0-0.9,1.676-2.5,2.303c0,0-0.483,0.178,0.02-0.125C12.612,29.615,13.755,28.634,14.974,27.363z"/>
	
		<ellipse transform="matrix(0.9385 -0.3454 0.3454 0.9385 1.5475 14.3227)" fill-rule="evenodd" clip-rule="evenodd" cx="40.964" cy="2.819" rx="0.15" ry="0.09"/>
	
		<ellipse transform="matrix(0.7526 -0.6585 0.6585 0.7526 8.8755 28.1891)" fill-rule="evenodd" clip-rule="evenodd" cx="41.95" cy="2.284" rx="0.151" ry="0.09"/>
	<path fill-rule="evenodd" clip-rule="evenodd" d="M39.91,3.784c0,0,0.404-0.329,0.953-0.414c0,0,0.148-0.014,0.021,0.057
		c0,0-0.817,0.347-0.904,0.52C39.933,4.041,39.68,3.96,39.91,3.784z"/>
	<path fill-rule="evenodd" clip-rule="evenodd" d="M39.004,4.917c0,0,0.427-0.466,1.071-0.666c0,0,0.176-0.042,0.035,0.066
		c0,0-0.92,0.559-0.994,0.781C39.076,5.222,38.757,5.17,39.004,4.917z"/>
	<path fill-rule="evenodd" clip-rule="evenodd" d="M38.714,5.991c0,0,0.318-0.463,0.861-0.718c0,0,0.15-0.059,0.039,0.053
		c0,0-0.742,0.607-0.779,0.812C38.816,6.251,38.529,6.245,38.714,5.991z"/>
	
		<ellipse transform="matrix(0.9021 0.4315 -0.4315 0.9021 8.9282 -21.0483)" fill-rule="evenodd" clip-rule="evenodd" cx="50.855" cy="9.154" rx="0.175" ry="0.079"/>
	
		<ellipse transform="matrix(0.6504 -0.7596 0.7596 0.6504 10.1523 42.4288)" fill-rule="evenodd" clip-rule="evenodd" cx="51.167" cy="10.186" rx="0.096" ry="0.22"/>
	<path fill-rule="evenodd" clip-rule="evenodd" d="M51.222,10.886c0,0-0.118-0.099-0.076,0.028c0,0,0.258,0.704,0.32,0.972
		c0,0,0.153,0.618,0.236,0.152C51.703,12.038,51.788,11.834,51.222,10.886z"/>
	<path fill-rule="evenodd" clip-rule="evenodd" d="M51.023,11.655c0,0-0.123-0.144-0.098,0.019c0,0,0.174,0.906,0.196,1.245
		c0,0,0.063,0.781,0.258,0.23C51.379,13.149,51.523,12.919,51.023,11.655z"/>
	<path fill-rule="evenodd" clip-rule="evenodd" d="M50.636,13.333c0,0-0.013-0.062-0.032-0.011c0,0-0.1,0.292-0.149,0.395
		c0,0-0.11,0.238,0.037,0.109C50.492,13.826,50.572,13.783,50.636,13.333z"/>
	<path fill-rule="evenodd" clip-rule="evenodd" d="M48.035,15.102c0,0-0.286-0.127,0.072-0.148c0,0,1.588,0.133,1.977-0.478
		c0,0,0.327-0.517,0.149,0.046C50.233,14.522,50.154,15.271,48.035,15.102z"/>
	<ellipse transform="matrix(0.9388 -0.3446 0.3446 0.9388 -6.8305 3.207)" cx="5.607" cy="20.819" rx="0.152" ry="0.134"/>
	<ellipse transform="matrix(0.9959 0.0907 -0.0907 0.9959 1.8121 -0.4139)" cx="5.458" cy="19.727" rx="0.237" ry="0.171"/>
	
		<ellipse transform="matrix(0.996 0.0893 -0.0893 0.996 2.2214 -1.2859)" fill-rule="evenodd" clip-rule="evenodd" cx="15.475" cy="24.171" rx="0.148" ry="0.073"/>
	
		<ellipse transform="matrix(0.9961 0.0882 -0.0882 0.9961 2.251 -1.2439)" fill-rule="evenodd" clip-rule="evenodd" cx="15.204" cy="24.855" rx="0.271" ry="0.087"/>
	<path fill-rule="evenodd" clip-rule="evenodd" d="M13.961,26.262c0,0,0.822-0.068,1.236-0.594c0,0,0.263-0.361-0.073-0.064
		c0,0-0.516,0.463-0.968,0.495C14.157,26.099,13.573,26.162,13.961,26.262z"/>
	<path fill-rule="evenodd" clip-rule="evenodd" d="M13.283,27.373c0,0,0.535-0.092,1.168-0.617c0.002,0.006,0.309-0.369-0.095-0.073
		c0,0-0.568,0.481-1.019,0.509C13.337,27.191,12.882,27.299,13.283,27.373z"/>
	<path fill-rule="evenodd" clip-rule="evenodd" d="M11.534,28.834c0,0-0.454-0.098,0.053-0.205c0,0,0.873-0.115,1.426-0.689
		c0,0,0.65-0.497,0.122,0.109C13.135,28.049,12.395,28.793,11.534,28.834z"/>
	
		<ellipse transform="matrix(0.9367 -0.3502 0.3502 0.9367 -7.4305 2.4968)" fill-rule="evenodd" clip-rule="evenodd" cx="3.188" cy="21.792" rx="0.06" ry="0.053"/>
	
		<ellipse transform="matrix(0.9913 -0.1317 0.1317 0.9913 -2.7703 0.543)" fill-rule="evenodd" clip-rule="evenodd" cx="2.719" cy="21.213" rx="0.07" ry="0.163"/>
	<path fill-rule="evenodd" clip-rule="evenodd" d="M2.364,20.472c0,0-0.189-0.819,0.011-1.253c0,0,0.289-0.496,0.146,0.092
		c0,0-0.189,0.84-0.085,1.135C2.436,20.445,2.498,20.801,2.364,20.472z"/>
	<path fill-rule="evenodd" clip-rule="evenodd" d="M2.007,19.146c0,0-0.087-0.91,0.228-1.365c0,0,0.433-0.515,0.159,0.113
		c0,0-0.371,0.898-0.295,1.23C2.099,19.125,2.111,19.521,2.007,19.146z"/>
	<path fill-rule="evenodd" clip-rule="evenodd" d="M1.788,17.964c0,0,0.087-0.913,0.482-1.298c0,0,0.521-0.424,0.135,0.141
		c0,0-0.534,0.813-0.522,1.153C1.882,17.96,1.82,18.35,1.788,17.964z"/>
	<path fill-rule="evenodd" clip-rule="evenodd" d="M2.847,15.695c0,0,0.751-1.086,2.069-1.145c0,0,0.56,0.102-0.051,0.253
		c0,0-1.17,0.051-1.852,0.882C3.014,15.687,2.741,16.048,2.847,15.695z"/>
	<path fill-rule="evenodd" clip-rule="evenodd" d="M47.344,6.122c-0.178,0-0.323,0.178-0.322,0.399
		c0.001,0.22,0.146,0.398,0.323,0.399c0.179-0.001,0.323-0.179,0.322-0.4C47.667,6.3,47.523,6.121,47.344,6.122z M47.464,6.522
		c0,0.089-0.05,0.161-0.111,0.162c-0.061-0.001-0.11-0.073-0.109-0.162c-0.001-0.089,0.049-0.161,0.109-0.161
		C47.416,6.361,47.464,6.434,47.464,6.522z"/>
</g>
</svg>
