<?xml version="1.0" encoding="utf-8"?>
<!-- Generator: Adobe Illustrator 16.0.0, SVG Export Plug-In . SVG Version: 6.00 Build 0)  -->
<!DOCTYPE svg PUBLIC "-//W3C//DTD SVG 1.1//EN" "http://www.w3.org/Graphics/SVG/1.1/DTD/svg11.dtd">
<svg version="1.1" id="Calque_1" xmlns="http://www.w3.org/2000/svg" xmlns:xlink="http://www.w3.org/1999/xlink" x="0px" y="0px"
	 width="262.318px" height="94.912px" viewBox="0 0 262.318 94.912" enable-background="new 0 0 262.318 94.912"
	 xml:space="preserve">
<g id="bubles_1_">
	<g>
		
			<radialGradient id="SVGID_1_" cx="-268.2261" cy="-105.4897" r="26.7107" gradientTransform="matrix(0.8031 -0.5959 0.5959 0.8031 497.0447 -24.5347)" gradientUnits="userSpaceOnUse">
			<stop  offset="0.4604" style="stop-color:#CCEDFE"/>
			<stop  offset="1" style="stop-color:#21ACE7"/>
		</radialGradient>
		<circle opacity="0.7" fill="url(#SVGID_1_)" cx="218.772" cy="50.583" r="26.711"/>
		<path fill="#FFFFFF" d="M200.338,62.241c0,0-12.289-16.778,6.098-28.284C206.436,33.958,194.678,47.672,200.338,62.241z"/>
	</g>
	<g>
		
			<radialGradient id="SVGID_2_" cx="-292.481" cy="-93.5029" r="13.5347" gradientTransform="matrix(0.8031 -0.5959 0.5959 0.8031 497.0447 -24.5347)" gradientUnits="userSpaceOnUse">
			<stop  offset="0.4604" style="stop-color:#CCEDFE"/>
			<stop  offset="1" style="stop-color:#21ACE7"/>
		</radialGradient>
		<circle opacity="0.7" fill="url(#SVGID_2_)" cx="206.436" cy="74.663" r="13.535"/>
		<path fill="#FFFFFF" d="M197.095,80.57c0,0-6.227-8.502,3.09-14.331C200.185,66.239,194.227,73.188,197.095,80.57z"/>
	</g>
	<g>
		
			<radialGradient id="SVGID_3_" cx="-275.355" cy="-131.376" r="20.749" gradientTransform="matrix(0.8031 -0.5959 0.5959 0.8031 497.0447 -24.5347)" gradientUnits="userSpaceOnUse">
			<stop  offset="0.4604" style="stop-color:#CCEDFE"/>
			<stop  offset="1" style="stop-color:#21ACE7"/>
		</radialGradient>
		<circle opacity="0.7" fill="url(#SVGID_3_)" cx="197.621" cy="34.042" r="20.75"/>
		<path fill="#FFFFFF" d="M183.301,43.099c0,0-9.546-13.034,4.737-21.971C188.039,21.127,178.904,31.781,183.301,43.099z"/>
	</g>
	<g>
		
			<radialGradient id="SVGID_4_" cx="-250.0039" cy="-130.7188" r="16.687" gradientTransform="matrix(0.8031 -0.5959 0.5959 0.8031 497.0447 -24.5347)" gradientUnits="userSpaceOnUse">
			<stop  offset="0.4604" style="stop-color:#CCEDFE"/>
			<stop  offset="1" style="stop-color:#21ACE7"/>
		</radialGradient>
		<circle opacity="0.7" fill="url(#SVGID_4_)" cx="218.373" cy="19.462" r="16.688"/>
		<path fill="#FFFFFF" d="M206.857,26.746c0,0-7.679-10.482,3.809-17.669C210.666,9.077,203.321,17.644,206.857,26.746z"/>
	</g>
	<g>
		
			<radialGradient id="SVGID_5_" cx="-279.2554" cy="-80.6768" r="9.2043" gradientTransform="matrix(0.8031 -0.5959 0.5959 0.8031 497.0447 -24.5347)" gradientUnits="userSpaceOnUse">
			<stop  offset="0.4604" style="stop-color:#CCEDFE"/>
			<stop  offset="1" style="stop-color:#21ACE7"/>
		</radialGradient>
		<circle opacity="0.7" fill="url(#SVGID_5_)" cx="224.7" cy="77.082" r="9.204"/>
		<path fill="#FFFFFF" d="M218.348,81.1c0,0-4.234-5.781,2.102-9.746C220.45,71.354,216.397,76.08,218.348,81.1z"/>
	</g>
	<g>
		
			<radialGradient id="SVGID_6_" cx="-240.1479" cy="-89.686" r="9.2046" gradientTransform="matrix(0.8031 -0.5959 0.5959 0.8031 497.0447 -24.5347)" gradientUnits="userSpaceOnUse">
			<stop  offset="0.4604" style="stop-color:#CCEDFE"/>
			<stop  offset="1" style="stop-color:#21ACE7"/>
		</radialGradient>
		<circle opacity="0.7" fill="url(#SVGID_6_)" cx="250.739" cy="46.542" r="9.205"/>
		<path fill="#FFFFFF" d="M244.387,50.561c0,0-4.234-5.782,2.102-9.747C246.489,40.813,242.436,45.541,244.387,50.561z"/>
	</g>
	<g>
		
			<radialGradient id="SVGID_7_" cx="-301.1567" cy="-110.4277" r="9.2046" gradientTransform="matrix(0.8031 -0.5959 0.5959 0.8031 497.0447 -24.5347)" gradientUnits="userSpaceOnUse">
			<stop  offset="0.4604" style="stop-color:#CCEDFE"/>
			<stop  offset="1" style="stop-color:#21ACE7"/>
		</radialGradient>
		<circle opacity="0.7" fill="url(#SVGID_7_)" cx="189.383" cy="66.239" r="9.205"/>
		<path fill="#FFFFFF" d="M183.031,70.258c0,0-4.234-5.782,2.102-9.747C185.132,60.511,181.08,65.238,183.031,70.258z"/>
	</g>
	<g>
		
			<radialGradient id="SVGID_8_" cx="-255.2412" cy="-78.1597" r="16.8296" gradientTransform="matrix(0.8031 -0.5959 0.5959 0.8031 497.0447 -24.5347)" gradientUnits="userSpaceOnUse">
			<stop  offset="0.4604" style="stop-color:#CCEDFE"/>
			<stop  offset="1" style="stop-color:#21ACE7"/>
		</radialGradient>
		<circle opacity="0.7" fill="url(#SVGID_8_)" cx="245.486" cy="64.793" r="16.83"/>
		<path fill="#FFFFFF" d="M233.872,72.139c0,0-7.742-10.57,3.844-17.82C237.715,54.318,230.305,62.961,233.872,72.139z"/>
	</g>
	<g>
		
			<radialGradient id="SVGID_9_" cx="-231.9888" cy="-114.3418" r="12.5793" gradientTransform="matrix(0.8031 -0.5959 0.5959 0.8031 497.0447 -24.5347)" gradientUnits="userSpaceOnUse">
			<stop  offset="0.4604" style="stop-color:#CCEDFE"/>
			<stop  offset="1" style="stop-color:#21ACE7"/>
		</radialGradient>
		<circle opacity="0.7" fill="url(#SVGID_9_)" cx="242.599" cy="21.879" r="12.58"/>
		<path fill="#FFFFFF" d="M233.917,27.37c0,0-5.786-7.901,2.873-13.32C236.791,14.05,231.251,20.51,233.917,27.37z"/>
	</g>
</g>
<g id="logo_toutou">
	<g>
		<path display="none" fill-rule="evenodd" clip-rule="evenodd" fill="#FFFFFF" d="M-8.659,39.49l23.006,62.711L169.105,45.43
			l-23.008-62.713L-8.659,39.49z M153.828,7.821c-0.207,3.329-1.219,6.378-3.018,9.203c-0.941,1.483-1.699,3.088-2.475,4.669
			c-0.537,1.097-0.42,1.268,0.791,1.511c1.783,0.357,3.604,0.585,5.342,1.09c2.57,0.743,4.66,2.235,6.439,4.292
			c2.631,3.057,1.537,6.249,0.6,9.447c-1.182,4.036-3.477,7.421-6.621,10.167c-1.363,1.186-3.053,1.986-4.535,3.043
			c-2.34,1.677-5.098,2.244-7.803,2.773c-2.012,0.393-4.141,0.323-6.203,0.216c-3.475-0.177-6.82-1.017-9.805-2.856
			c-1.266-0.781-2.371-1.83-3.49-2.827c-0.879-0.779-1.636-1.692-2.496-2.495c-1.304-1.215-2.973-1.401-4.629-1.338
			c-1.681,0.07-3.391,0.605-5.036,0.474c-0.052-0.001-0.096-0.005-0.141-0.012c-2.168-0.226-2.963,1.204-4.046,2.474
			c-2.123,2.493-4.477,4.729-7.068,6.76c-2.585,2.028-5.511,3.355-8.374,4.857c-3.322,1.742-6.84,2.955-10.475,3.68
			c-2.975,0.594-6.046,0.825-9.085,0.914c-2.183,0.065-4.388-0.301-6.565-0.6c-1.27-0.172-2.02,0.711-2.957,1.184
			c-4.371,2.208-6.902,5.905-8.9,10.297c-1.549,3.41-3.048,6.961-5.611,9.821c-1.703,1.907-3.549,3.637-5.638,5.173
			c-2.235,1.645-4.652,2.835-7.227,3.568c-2.888,0.818-5.91,1.556-8.886,1.594c-3.299,0.045-6.766,0.064-9.847-1.506
			c-1.2-0.613-2.333-1.523-3.23-2.531c-2.192-2.471-1.83-5.408-1.398-8.412c0.411-2.855,1.677-5.339,2.764-7.922
			c0.336-0.8,0.558-1.662,0.703-2.518c0.044-0.248-0.313-0.758-0.576-0.833c-1.79-0.501-3.603-0.919-5.411-1.356
			c-2.948-0.711-5.703-1.893-7.465-4.443c-0.973-1.406-1.308-3.184-1.43-4.99c-0.196-2.904,0.732-5.498,1.585-8.184
			c0.757-2.393,1.979-4.448,3.663-6.174c1.372-1.409,2.971-2.717,4.696-3.633c2.298-1.211,4.749-2.402,7.268-2.874
			c3.695-0.69,7.556-0.982,11.231,0.216c2.654,0.868,5.368,1.763,7.581,3.619c0.473,0.399,0.938,0.833,1.296,1.334
			c1.009,1.398,2.369,2.265,3.989,2.74c0.278,0.081,0.623-0.051,0.938-0.083c-0.058-0.262-0.086-0.538-0.182-0.786
			c-1.584-4.153-2.239-8.301-1.208-12.792c0.792-3.446,2.854-5.856,5.219-8.078c2.964-2.781,6.644-4.09,10.714-4.25
			c0.404-0.015,0.815-0.015,1.216,0.023c0.392,0.042,0.778,0.144,1.229,0.23c0.248-0.799,0.408-1.59,0.728-2.31
			c1.845-4.167,5.053-6.753,9.406-7.967c2.355-0.653,4.734-1.144,7.16-0.439c0.802,0.233,1.592,0.593,2.311,1.025
			c0.689,0.416,1.027,0.176,1.439-0.379c1.521-2.038,3.119-3.967,5.411-5.264c3.224-1.83,6.73-2.451,10.31-2.304
			c4.637,0.194,8.475,2.429,11.717,5.646c1.215,1.203,2.223,2.606,3.303,3.897c1.057-1.248,2.135-2.517,3.209-3.785
			c1.445-1.702,3.26-2.929,5.14-4.091c3.772-2.34,7.915-3.79,12.137-5.032c1.023-0.298,2.141-0.292,3.215-0.378
			c1.672-0.136,3.352-0.347,5.027-0.312c4.063,0.079,7.99,0.942,11.609,2.806C153.316,3.802,153.966,5.692,153.828,7.821z"/>
		<path fill-rule="evenodd" clip-rule="evenodd" d="M148.335,21.693c0.775-1.581,1.533-3.186,2.475-4.669
			c1.799-2.825,2.811-5.874,3.018-9.203c0.139-2.129-0.512-4.019-2.443-5.011c-3.619-1.863-7.547-2.727-11.609-2.806
			c-1.676-0.036-3.355,0.176-5.027,0.312c-1.074,0.086-2.191,0.081-3.215,0.378c-4.222,1.242-8.365,2.691-12.137,5.032
			c-1.88,1.162-3.694,2.389-5.14,4.091c-1.074,1.269-2.152,2.537-3.209,3.785c-1.08-1.291-2.088-2.694-3.303-3.897
			c-3.242-3.217-7.08-5.451-11.717-5.646c-3.579-0.147-7.086,0.474-10.31,2.304c-2.292,1.296-3.891,3.226-5.411,5.264
			c-0.412,0.555-0.75,0.795-1.439,0.379c-0.719-0.432-1.509-0.792-2.311-1.025c-2.426-0.705-4.805-0.214-7.16,0.439
			c-4.354,1.213-7.562,3.8-9.406,7.967c-0.32,0.72-0.48,1.511-0.728,2.31c-0.451-0.086-0.837-0.189-1.229-0.23
			c-0.4-0.038-0.812-0.038-1.216-0.023c-4.07,0.161-7.75,1.47-10.714,4.25c-2.365,2.222-4.427,4.631-5.219,8.078
			c-1.031,4.491-0.376,8.639,1.208,12.792c0.096,0.248,0.125,0.524,0.182,0.786c-0.316,0.032-0.661,0.164-0.938,0.083
			c-1.621-0.476-2.98-1.342-3.989-2.74c-0.358-0.501-0.824-0.935-1.296-1.334c-2.212-1.856-4.926-2.751-7.581-3.619
			c-3.675-1.198-7.536-0.906-11.231-0.216c-2.52,0.471-4.97,1.662-7.268,2.874c-1.725,0.916-3.324,2.224-4.696,3.633
			c-1.684,1.726-2.906,3.781-3.663,6.174c-0.853,2.686-1.781,5.279-1.585,8.184c0.122,1.807,0.457,3.584,1.43,4.99
			c1.762,2.551,4.517,3.732,7.465,4.443c1.808,0.438,3.621,0.855,5.411,1.356c0.263,0.075,0.62,0.585,0.576,0.833
			c-0.146,0.855-0.367,1.718-0.703,2.518c-1.087,2.583-2.353,5.066-2.764,7.922c-0.432,3.004-0.794,5.941,1.398,8.412
			c0.897,1.008,2.03,1.918,3.23,2.531c3.082,1.57,6.548,1.551,9.847,1.506c2.977-0.038,5.999-0.775,8.886-1.594
			c2.575-0.733,4.992-1.924,7.227-3.568c2.089-1.536,3.935-3.266,5.638-5.173c2.563-2.86,4.062-6.411,5.611-9.821
			c1.998-4.392,4.529-8.089,8.9-10.297c0.938-0.473,1.688-1.355,2.957-1.184c2.178,0.299,4.383,0.665,6.565,0.6
			c3.039-0.089,6.11-0.32,9.085-0.914c3.635-0.725,7.152-1.938,10.475-3.68c2.863-1.502,5.789-2.829,8.374-4.857
			c2.592-2.031,4.945-4.267,7.068-6.76c1.155-1.356,2.681-2.077,4.187-2.462c2.037-0.525,4.039-0.437,5.036-0.474
			c1.656-0.063,3.325,0.123,4.629,1.338c0.86,0.803,1.617,1.716,2.496,2.495c1.119,0.997,2.225,2.046,3.49,2.827
			c2.985,1.84,6.331,2.68,9.805,2.856c2.063,0.107,4.191,0.177,6.203-0.216c2.705-0.529,5.463-1.097,7.803-2.773
			c1.482-1.057,3.172-1.857,4.535-3.043c3.145-2.746,5.439-6.131,6.621-10.167c0.938-3.198,2.031-6.39-0.6-9.447
			c-1.779-2.057-3.869-3.549-6.439-4.292c-1.738-0.505-3.559-0.733-5.342-1.09C147.916,22.96,147.798,22.79,148.335,21.693z
			 M43.13,32.767c0.646-1.887,2.201-3.566,3.65-5.04c3.162-3.216,7.112-4.602,11.633-4.321c0.691,0.042,1.09,0.236,1.365,0.964
			c0.083,0.222,0.175,0.436,0.275,0.638c0.96,1.982,2.631,3.208,4.794,3.916c4.703,1.539,8.801,0.126,12.695-2.449
			c2.117-1.403,3.613-3.298,4.667-5.594c0.952-2.085,0.793-4.088-0.324-6.02c-0.125-0.212-0.212-0.405-0.265-0.595
			c-0.175-0.6-0.004-1.108,0.461-1.76c1.927-2.693,4.281-4.808,7.484-5.735c3.661-1.062,7.483-1.577,11.033,0.056
			c2.221,1.023,4.144,2.769,6.05,4.368c1.022,0.856,1.731,2.088,2.572,3.153c0.626,0.791,0.517,1.436-0.161,2.234
			c-0.598,0.703-1.162,1.442-1.666,2.219c-0.318,0.484-0.613,0.98-0.885,1.489c-0.871,1.649-2.144,2.829-3.681,3.773
			c-2.163,1.322-4.319,2.654-6.519,3.906c-1.615,0.918-3.3,1.722-4.959,2.566c-1.335,0.671-2.68,1.323-4.094,2.016
			c0.108-1.056,0.205-1.984,0.299-2.91c-0.133-0.04-0.264-0.075-0.396-0.116c-0.526,0.768-1.008,1.57-1.591,2.291
			c-1.241,1.547-2.407,3.192-3.844,4.537c-1.887,1.77-4.124,2.876-6.885,2.53c-2.261-0.282-4.543-0.414-6.819-0.604
			c-0.301-0.026-0.605-0.021-0.908-0.028c-0.053,0.116-0.107,0.235-0.16,0.349c0.613,0.435,1.227,0.865,2.053,1.445
			c-1.639,0.602-3.105,1.149-4.574,1.68c-3.005,1.082-5.98,2.264-9.033,3.196c-2.73,0.836-5.55,1.389-8.328,2.063
			c-0.394,0.1-0.783,0.215-1.179,0.281c-0.031,0.006-0.061,0.008-0.091,0.014c-1.346,0.199-1.762-0.598-2.294-1.727
			C41.498,41.31,41.68,36.977,43.13,32.767z M94.73,56.637c-8.776,5.05-18.164,7.168-28.287,5.41
			c12.535-6.959,25.492-12.808,39.893-15.96C103.053,50.576,99.252,54.035,94.73,56.637z M145.308,28.352
			c0.246,0.95,1.33,1.686,2.221,2.408c-0.51-1.863-0.902-3.625-0.084-5.73c1.49,0.27,3.098,0.4,4.594,0.873
			c1.645,0.527,3.238,1.184,4.658,2.322c1.934,1.548,2.809,3.424,2.678,5.843c-0.121,2.273-0.74,4.411-1.771,6.433
			c-1.326,2.602-2.857,5.082-5.109,6.984c-2.447,2.078-5.139,3.771-8.363,4.422c-1.221,0.245-2.436,0.551-3.662,0.76
			c-3.275,0.561-6.053-0.832-8.705-2.428c-1.57-0.943-2.994-2.137-4.431-3.275c-3.423-2.707-7.146-4.822-11.604-4.878
			c-2.173-0.028-4.378,0.512-6.524,1c-2.92,0.663-5.83,1.41-8.681,2.322c-3.442,1.1-6.825,2.365-10.206,3.637
			c-2.143,0.806-4.213,1.797-6.346,2.625c-2.031,0.79-4.127,1.411-6.145,2.225c-1.43,0.574-2.791,1.32-4.158,2.033
			c-1.947,1.021-3.869,2.086-5.814,3.116c-3.878,2.057-7.798,4.04-11.632,6.175c-2.086,1.162-4.03,2.574-6.036,3.873
			c-0.127,0.086-0.239,0.191-0.358,0.287c0.091,0.068,0.182,0.133,0.271,0.204l3.847-1.412c-0.108,0.329-0.135,0.528-0.227,0.677
			c-0.762,1.191-1.656,2.314-2.283,3.572c-1.313,2.622-2.264,5.445-3.775,7.936c-1.789,2.936-3.945,5.623-6.719,7.816
			c-2.32,1.832-4.948,2.871-7.669,3.714c-1.631,0.504-3.399,0.585-5.116,0.774c-2.704,0.305-5.43,0.43-8.084-0.307
			c-4.826-1.336-6.7-4.369-5.945-9.148c0.291-1.834,1.32-3.544,1.906-5.349c0.62-1.901,1.167-3.833,1.647-5.774
			c0.68-2.741,0.032-5.315-1.36-7.678c-0.383-0.648-1.227-1.027-1.858-1.529c-0.084,0.101-0.17,0.196-0.257,0.297
			c0.332,0.582,0.716,1.141,0.975,1.755c0.251,0.598,0.497,1.247,0.529,1.886c0.086,1.707-0.533,2.162-2.219,1.98
			c-2.92-0.314-5.578-1.214-7.804-3.199c-1.984-1.772-3.057-3.883-3.033-6.656c0.026-3.807,0.912-7.313,2.89-10.543
			c1.501-2.448,3.568-4.42,6.119-5.597c2.767-1.276,5.711-2.097,8.887-2.143c3.081-0.042,5.992,0.596,8.94,1.27
			c1.826,0.418,3.159,1.476,4.31,2.86c0.661,0.791,1.321,1.58,2.015,2.344c1.631,1.813,3.863,2.178,6.098,2.299
			c1.125,0.063,2.238,0.031,3.34-0.074c0.451-0.043,0.899-0.099,1.345-0.166c2.092-0.313,4.142-0.869,6.168-1.543
			c0.332-0.11,0.696-0.234,1.085-0.365c4.227-1.404,8.452-2.822,12.669-4.264c0.782-0.264,1.54-0.631,2.267-1.029
			c2.197-1.191,4.496-1.2,6.922-0.974c3.453,0.325,6.396-1.165,8.359-3.838c1.445-1.972,3.361-2.844,5.347-3.846
			c2.91-1.467,5.797-2.979,8.71-4.442c2.643-1.33,5.332-2.576,7.959-3.938c2.178-1.126,4.295-2.37,6.441-3.557
			c0.306-0.171,0.631-0.313,0.946-0.468c-0.046-0.119-0.087-0.237-0.134-0.354l-4.057,1.489c-0.059-0.126-0.117-0.248-0.175-0.371
			c0.845-1.326,1.674-2.657,2.54-3.97c1.387-2.101,2.627-4.333,4.248-6.239c1.665-1.961,3.61-3.724,5.615-5.351
			c3.41-2.758,7.5-4.01,11.785-4.471c2.984-0.323,6.01-0.427,9.006-0.324c2.09,0.071,4.152,0.791,5.742,2.242
			c0.709,0.653,1.195,1.652,1.537,2.584c1.721,4.721-0.533,8.671-2.76,12.486C144.996,21.759,144.437,24.957,145.308,28.352z"/>
		
			<linearGradient id="SVGID_10_" gradientUnits="userSpaceOnUse" x1="-254.894" y1="-7.0059" x2="-182.2671" y2="-7.0059" gradientTransform="matrix(0.9388 -0.3444 0.3444 0.9388 282.5372 -42.7629)">
			<stop  offset="0.5745" style="stop-color:#FFC36C"/>
			<stop  offset="1" style="stop-color:#FAF6B4"/>
		</linearGradient>
		<path fill-rule="evenodd" clip-rule="evenodd" fill="url(#SVGID_10_)" d="M109.061,16.581c-0.598,0.703-1.162,1.442-1.666,2.219
			c-0.318,0.484-0.613,0.98-0.885,1.489c-0.871,1.649-2.144,2.829-3.681,3.773c-2.163,1.322-4.319,2.654-6.519,3.906
			c-1.615,0.918-3.3,1.722-4.959,2.566c-1.335,0.671-2.68,1.323-4.094,2.016c0.108-1.056,0.205-1.984,0.299-2.91
			c-0.133-0.04-0.264-0.075-0.396-0.116c-0.526,0.768-1.008,1.57-1.591,2.291c-1.241,1.547-2.407,3.192-3.844,4.537
			c-1.887,1.77-4.124,2.876-6.885,2.53c-2.261-0.282-4.543-0.414-6.819-0.604c-0.301-0.026-0.605-0.021-0.908-0.028
			c-0.053,0.116-0.107,0.235-0.16,0.349c0.613,0.435,1.227,0.865,2.053,1.445c-1.639,0.602-3.105,1.149-4.574,1.68
			c-3.005,1.082-5.98,2.264-9.033,3.196c-2.73,0.836-5.55,1.389-8.328,2.063c-0.394,0.1-0.783,0.215-1.179,0.281
			c-0.031,0.006-0.061,0.008-0.091,0.014c-1.346,0.199-1.762-0.598-2.294-1.727c-2.009-4.241-1.827-8.574-0.376-12.784
			c0.646-1.887,2.201-3.566,3.65-5.04c3.162-3.216,7.112-4.602,11.633-4.321c0.691,0.042,1.09,0.236,1.365,0.964
			c0.083,0.222,0.175,0.436,0.275,0.638c0.96,1.982,2.631,3.208,4.794,3.916c4.703,1.539,8.801,0.126,12.695-2.449
			c2.117-1.403,3.613-3.298,4.667-5.594c0.952-2.085,0.793-4.088-0.324-6.02c-0.125-0.212-0.212-0.405-0.265-0.595
			c-0.175-0.6-0.004-1.108,0.461-1.76c1.927-2.693,4.281-4.808,7.484-5.735c3.661-1.062,7.483-1.577,11.033,0.056
			c2.221,1.023,4.144,2.769,6.05,4.368c1.022,0.856,1.731,2.088,2.572,3.153C109.848,15.137,109.738,15.782,109.061,16.581z"/>
		<path fill-rule="evenodd" clip-rule="evenodd" fill="#FFFFFF" d="M109.104,21.686c0.845-1.326,1.674-2.657,2.54-3.969
			c1.387-2.103,2.627-4.334,4.248-6.24c1.665-1.961,3.609-3.725,5.615-5.349c3.41-2.759,7.5-4.011,11.785-4.473
			c2.982-0.32,6.01-0.425,9.006-0.326c2.092,0.072,4.152,0.792,5.742,2.244c0.709,0.652,1.197,1.653,1.537,2.584
			c1.721,4.719-0.535,8.673-2.76,12.485c-1.824,3.118-2.383,6.313-1.51,9.709c0.246,0.951,1.334,1.686,2.225,2.406
			c-0.516-1.862-0.906-3.622-0.088-5.728c1.49,0.27,3.1,0.397,4.592,0.874c1.646,0.524,3.24,1.182,4.66,2.318
			c1.934,1.549,2.809,3.425,2.678,5.845c-0.121,2.273-0.74,4.411-1.771,6.433c-1.33,2.602-2.857,5.082-5.105,6.986
			c-2.451,2.076-5.143,3.77-8.365,4.418c-1.223,0.247-2.438,0.553-3.664,0.764c-3.275,0.561-6.055-0.834-8.709-2.43
			c-1.566-0.941-2.989-2.137-4.429-3.277c-3.423-2.705-7.145-4.819-11.603-4.876c-2.171-0.028-4.377,0.51-6.524,1
			c-2.92,0.663-5.83,1.41-8.681,2.322c-3.44,1.1-6.825,2.367-10.206,3.637c-2.141,0.807-4.213,1.799-6.345,2.625
			c-2.03,0.789-4.127,1.411-6.147,2.225c-1.428,0.574-2.789,1.32-4.154,2.033c-1.949,1.018-3.873,2.087-5.814,3.116
			c-3.881,2.057-7.8,4.042-11.634,6.175c-2.086,1.16-4.028,2.574-6.036,3.875c-0.127,0.082-0.239,0.188-0.359,0.285
			c0.092,0.068,0.184,0.135,0.271,0.199c1.229-0.449,2.457-0.898,3.848-1.409c-0.11,0.331-0.135,0.53-0.229,0.681
			c-0.762,1.189-1.655,2.313-2.282,3.571c-1.313,2.62-2.263,5.442-3.775,7.933c-1.787,2.939-3.947,5.625-6.719,7.818
			c-2.32,1.832-4.948,2.873-7.667,3.716c-1.631,0.504-3.401,0.583-5.114,0.773c-2.706,0.304-5.431,0.428-8.086-0.308
			c-4.827-1.336-6.701-4.367-5.946-9.149c0.291-1.835,1.32-3.543,1.906-5.345c0.62-1.904,1.166-3.832,1.647-5.776
			c0.681-2.742,0.031-5.316-1.361-7.679c-0.381-0.648-1.226-1.027-1.857-1.529c-0.084,0.101-0.17,0.196-0.255,0.295
			c0.329,0.582,0.716,1.144,0.973,1.756c0.252,0.602,0.5,1.25,0.529,1.887c0.086,1.707-0.532,2.162-2.219,1.98
			c-2.921-0.313-5.578-1.214-7.804-3.199c-1.986-1.773-3.055-3.883-3.035-6.656c0.029-3.807,0.913-7.311,2.891-10.543
			c1.499-2.447,3.566-4.422,6.116-5.597c2.771-1.276,5.714-2.097,8.89-2.141c3.079-0.044,5.991,0.592,8.939,1.267
			c1.827,0.418,3.158,1.479,4.312,2.862c0.658,0.79,1.321,1.58,2.01,2.346c1.633,1.81,3.866,2.176,6.101,2.297
			c3.731,0.206,7.127-0.775,10.649-1.945c5.58-1.557,14.953-5.204,15.692-5.583c3.76-1.909,5.163-1.239,7.584-1.013
			c3.455,0.323,5.975-1.023,7.938-3.698c1.448-1.972,3.654-2.857,5.639-3.859c2.912-1.465,5.799-2.98,8.711-4.444
			c2.646-1.326,5.332-2.574,7.959-3.935c2.177-1.128,4.297-2.372,6.441-3.558c0.306-0.17,0.631-0.313,0.946-0.468
			c-0.046-0.119-0.09-0.238-0.136-0.355c-1.352,0.496-2.702,0.992-4.054,1.488C109.221,21.931,109.162,21.81,109.104,21.686z"/>
		
			<linearGradient id="SVGID_11_" gradientUnits="userSpaceOnUse" x1="-219.1802" y1="2.124" x2="-221.0632" y2="-15.3656" gradientTransform="matrix(0.9388 -0.3444 0.3444 0.9388 282.5372 -42.7629)">
			<stop  offset="0.5745" style="stop-color:#FFC36C"/>
			<stop  offset="1" style="stop-color:#FAF6B4"/>
		</linearGradient>
		<path fill-rule="evenodd" clip-rule="evenodd" fill="url(#SVGID_11_)" d="M102.643,10.68c-2.998-3.673-7.537-3.518-7.537-3.518
			c-5.219-0.563-9.57,2.839-9.57,2.839c-1.024,0.67-3.033,3.156-3.899,4.257c0.054,0.191,0.143,0.386,0.266,0.597
			c1.119,1.931,1.276,3.936,0.325,6.019c-1.053,2.295-2.553,4.193-4.668,5.594c-3.895,2.577-7.992,3.989-12.695,2.451
			c-2.162-0.709-3.833-1.934-4.793-3.916c-1.624-0.028-4.061,0.039-5.867,0.558c0,0-3.885,0.248-7.185,3.785
			c0,0-3.512,3.528-3.455,6.896c0,0-0.198,4.198,0.276,5.733c0.467,1.503-0.009,0.44,2.068,5.282
			c0.398-0.068,0.787-0.183,1.181-0.279c2.779-0.678,5.593-1.228,8.328-2.063c3.051-0.936,6.025-2.118,9.03-3.199
			c1.473-0.533,3.59-1.311,5.229-1.911c-0.826-0.581-2.094-0.778-2.707-1.211c-0.029-0.028-0.076-0.241,0.16-0.353
			c0.301,0.009,0.584,0.147,0.889,0.213c2.228,0.49,5.279,0.48,7.541,0.762c2.76,0.348,5.386-1.543,7.271-3.314
			c1.438-1.346,2.29-2.785,3.159-4.026c0.53-0.76,0.661-1.591,1.187-2.358c0.211-0.122,0.359,0.018,0.397,0.113
			c-0.093,0.93-0.654,2.358-0.762,3.416c1.412-0.695,3.22-1.849,4.556-2.522c1.66-0.84,3.344-1.645,4.961-2.563
			c2.199-1.252,4.357-2.586,6.516-3.907c1.539-0.945,2.813-2.122,3.686-3.772c0.269-0.51,0.563-1.003,0.882-1.491
			C104.337,12.292,102.643,10.68,102.643,10.68z"/>
		<path fill-rule="evenodd" clip-rule="evenodd" fill="#EEAA59" d="M109.061,16.581c-0.598,0.703-1.162,1.442-1.666,2.219
			c-3.072-6.503-4.767-8.115-4.767-8.115c-3-3.674-7.538-3.514-7.538-3.514c-5.219-0.565-9.57,2.836-9.57,2.836
			c-1.025,0.671-3.031,3.156-3.898,4.258c-0.175-0.6-0.004-1.108,0.461-1.76c1.927-2.693,4.281-4.808,7.484-5.735
			c3.661-1.062,7.483-1.577,11.033,0.056c2.221,1.023,4.144,2.769,6.05,4.368c1.022,0.856,1.731,2.088,2.572,3.153
			C109.848,15.137,109.738,15.782,109.061,16.581z"/>
		<path fill-rule="evenodd" clip-rule="evenodd" fill="#FFC26B" d="M66.443,62.047c12.535-6.959,25.489-12.811,39.893-15.96
			c-3.283,4.489-7.084,7.948-11.605,10.55C85.953,61.687,76.566,63.805,66.443,62.047z"/>
		<path fill-rule="evenodd" clip-rule="evenodd" fill="#EEAA59" d="M60.054,25.007c-1.624-0.027-4.06,0.039-5.866,0.56
			c0,0-3.888,0.248-7.186,3.785c0,0-3.062,3.391-3.454,6.895c0,0-0.834,6.406,2.343,11.017c-0.031,0.006-0.061,0.008-0.091,0.014
			c-1.346,0.199-1.762-0.598-2.294-1.727c-2.009-4.241-1.827-8.574-0.376-12.784c0.646-1.887,2.201-3.566,3.65-5.04
			c3.162-3.216,7.112-4.602,11.633-4.321c0.691,0.042,1.09,0.236,1.365,0.964C59.862,24.592,59.954,24.806,60.054,25.007z"/>
		<path fill-rule="evenodd" clip-rule="evenodd" fill="#EEAD5C" d="M100.173,47.933l5.245-1.391c0,0,0.1,0.003,0.049,0.076
			c-0.917,1.309-10.28,14.001-29.391,15.535c0,0,18.804-5.596,23.492-13.792C99.754,48.033,100.173,47.933,100.173,47.933z"/>
		
			<radialGradient id="SVGID_12_" cx="-222.332" cy="-20.6309" r="6.8481" fx="-229.1799" fy="-20.5853" gradientTransform="matrix(0.9388 -0.3444 0.3444 0.9388 282.5372 -42.7629)" gradientUnits="userSpaceOnUse">
			<stop  offset="0" style="stop-color:#FFFFFF"/>
			<stop  offset="1" style="stop-color:#020303"/>
		</radialGradient>
		<path fill-rule="evenodd" clip-rule="evenodd" fill="url(#SVGID_12_)" d="M75.031,12.07c0.383,4.904-6.502,12.695-14.02,8.482
			C61.923,17.63,65.457,11.041,75.031,12.07z"/>
	</g>
	
		<radialGradient id="SVGID_13_" cx="-241.0596" cy="-0.5728" r="1.4354" gradientTransform="matrix(0.9388 -0.3444 0.3846 1.0485 282.301 -42.4092)" gradientUnits="userSpaceOnUse">
		<stop  offset="0.5904" style="stop-color:#F08F33"/>
		<stop  offset="0.883" style="stop-color:#B86A24"/>
	</radialGradient>
	<path fill-rule="evenodd" clip-rule="evenodd" fill="url(#SVGID_13_)" d="M56.732,39.913c0.223,0.613-0.105,1.441-0.653,1.644
		c-0.547,0.202-1.318-0.168-1.542-0.782c-0.228-0.612,0.102-1.492,0.649-1.696C55.734,38.878,56.506,39.302,56.732,39.913z"/>
	
		<linearGradient id="SVGID_14_" gradientUnits="userSpaceOnUse" x1="-241.085" y1="-6.8398" x2="-242.0233" y2="-6.117" gradientTransform="matrix(0.9388 -0.3444 0.3444 0.9388 282.5372 -42.7629)">
		<stop  offset="0" style="stop-color:#F09339"/>
		<stop  offset="1" style="stop-color:#B76018"/>
	</linearGradient>
	<path fill-rule="evenodd" clip-rule="evenodd" fill="url(#SVGID_14_)" d="M54.364,33.922c0.163,0.445-0.031,0.925-0.436,1.073
		c-0.402,0.148-0.864-0.094-1.026-0.539c-0.163-0.443,0.033-0.923,0.436-1.073C53.741,33.237,54.201,33.478,54.364,33.922z"/>
	
		<radialGradient id="SVGID_15_" cx="-246.8198" cy="-4.4165" r="0.8582" gradientTransform="matrix(0.9388 -0.3444 0.3444 0.9388 282.5372 -42.7629)" gradientUnits="userSpaceOnUse">
		<stop  offset="0.514" style="stop-color:#F09339"/>
		<stop  offset="1" style="stop-color:#B76018"/>
	</radialGradient>
	<circle fill-rule="evenodd" clip-rule="evenodd" fill="url(#SVGID_15_)" cx="49.169" cy="38.306" r="0.858"/>
	
		<radialGradient id="SVGID_16_" cx="-171.1714" cy="-13.9653" r="1.5689" gradientTransform="matrix(0.9885 -0.3626 0.3748 1.0215 272.4396 -33.9298)" gradientUnits="userSpaceOnUse">
		<stop  offset="0.4307" style="stop-color:#F08F33"/>
		<stop  offset="0.8614" style="stop-color:#B86A24"/>
	</radialGradient>
	<path fill-rule="evenodd" clip-rule="evenodd" fill="url(#SVGID_16_)" d="M97.25,14.738c-0.186-0.503-0.027-1.023,0.354-1.161
		c0.379-0.141,0.838,0.154,1.02,0.656c0.186,0.504,0.025,1.022-0.352,1.163C97.89,15.534,97.435,15.24,97.25,14.738z"/>
	
		<radialGradient id="SVGID_17_" cx="-197.0703" cy="-5.9546" r="1.8438" gradientTransform="matrix(0.9388 -0.3444 0.3444 0.9388 282.5372 -42.7629)" gradientUnits="userSpaceOnUse">
		<stop  offset="0.4307" style="stop-color:#F08F33"/>
		<stop  offset="0.8614" style="stop-color:#B86A24"/>
	</radialGradient>
	<path fill-rule="evenodd" clip-rule="evenodd" fill="url(#SVGID_17_)" d="M96.17,19.899c0.198,0.542,0.012,1.111-0.42,1.269
		s-0.938-0.154-1.137-0.697c-0.201-0.542-0.013-1.106,0.418-1.265C95.463,19.047,95.971,19.357,96.17,19.899z"/>
	
		<radialGradient id="SVGID_18_" cx="-190.7568" cy="-4.123" r="1.7601" gradientTransform="matrix(0.9388 -0.3444 0.3444 0.9388 282.5372 -42.7629)" gradientUnits="userSpaceOnUse">
		<stop  offset="0.4307" style="stop-color:#F08F33"/>
		<stop  offset="0.8614" style="stop-color:#B86A24"/>
	</radialGradient>
	<path fill-rule="evenodd" clip-rule="evenodd" fill="url(#SVGID_18_)" d="M102.695,18.986c0.175,0.477-0.173,1.044-0.777,1.262
		c-0.604,0.221-1.232,0.017-1.409-0.462c-0.175-0.475,0.174-1.043,0.775-1.264C101.887,18.3,102.522,18.507,102.695,18.986z"/>
	<path fill-rule="evenodd" clip-rule="evenodd" fill="#E1F0FD" d="M148.638,12.131c0,0-0.105,1.217,0.563,0.145
		c0,0,2.262-7.546-3.49-9.521c0,0-0.725-0.05-0.223,0.473C145.488,3.228,149.929,5.372,148.638,12.131z"/>
	<path fill-rule="evenodd" clip-rule="evenodd" fill="#E1F0FD" d="M131.916,48.483c0,0-1.842-0.741-0.352,0.442
		c0,0,3.922,3.826,9.627,2.989c0,0,7.953-0.913,12.459-6.419c0,0,4.084-4.956,4.979-9.681c0,0,1.031-5.096-1.535-6.313
		c0,0-1.305-1.015-0.436,0.944c0,0,2.02,5.193-0.053,8.114c0,0-2.998,6.285-8.783,9.155c-5.785,2.869-9.197,2.35-9.197,2.35
		S135.529,50.298,131.916,48.483z"/>
	<path fill-rule="evenodd" clip-rule="evenodd" fill="#E1F0FD" d="M4.057,54.998c0,0,0.172-1.446-0.448-0.152
		c-0.621,1.293-0.214,5.738-0.194,6.006c0.018,0.27,0.144,1.36,0.888,2.425c0,0,0.749,1.61,3.812,3.001c0,0,4.367,1.621,0.541-0.671
		C8.655,65.606,4.896,63.176,4.057,54.998z"/>
	<path fill-rule="evenodd" clip-rule="evenodd" fill="#E1F0FD" d="M14.849,85.928c0,0-0.031-1.168,0.471-0.014
		c0,0,0.296,2.522,1.803,3.736c0,0,0.984,0.976-0.298,0.422C16.825,90.072,15.113,89.012,14.849,85.928z"/>
	<path fill-rule="evenodd" clip-rule="evenodd" fill="#E1F0FD" d="M45.027,82.283c0,0,1.484-1.527,0.357,0.223
		c0,0-2.708,5.039-7.519,6.922c0,0-1.454,0.534,0.059-0.373C37.924,89.055,41.361,86.102,45.027,82.283z"/>
	<path fill-rule="evenodd" clip-rule="evenodd" d="M123.605,8.32c0.05,0.139-0.099,0.322-0.332,0.408
		c-0.232,0.084-0.467,0.042-0.518-0.097c-0.048-0.14,0.1-0.321,0.334-0.407C123.323,8.138,123.555,8.181,123.605,8.32z"/>
	
		<ellipse transform="matrix(0.7527 -0.6584 0.6584 0.7527 26.6735 84.7449)" fill-rule="evenodd" clip-rule="evenodd" cx="126.144" cy="6.866" rx="0.453" ry="0.268"/>
	<path fill-rule="evenodd" clip-rule="evenodd" d="M120.011,11.377c0,0,1.214-0.99,2.863-1.245c0,0,0.448-0.042,0.064,0.17
		c0,0-2.456,1.042-2.716,1.562C120.08,12.149,119.319,11.907,120.011,11.377z"/>
	<path fill-rule="evenodd" clip-rule="evenodd" d="M117.287,14.787c0,0,1.283-1.401,3.22-2.001c0,0,0.528-0.126,0.108,0.198
		c0,0-2.768,1.68-2.99,2.349C117.502,15.703,116.546,15.545,117.287,14.787z"/>
	<path fill-rule="evenodd" clip-rule="evenodd" d="M116.415,18.015c0,0,0.956-1.392,2.591-2.16c0,0,0.453-0.178,0.117,0.16
		c0,0-2.23,1.827-2.342,2.442C116.719,18.796,115.857,18.779,116.415,18.015z"/>
	
		<ellipse transform="matrix(0.9014 0.433 -0.433 0.9014 26.9982 -63.5021)" fill-rule="evenodd" clip-rule="evenodd" cx="152.923" cy="27.526" rx="0.524" ry="0.238"/>
	<path fill-rule="evenodd" clip-rule="evenodd" d="M154.05,30.409c0.281,0.24,0.42,0.532,0.314,0.652
		c-0.104,0.122-0.414,0.026-0.693-0.213c-0.275-0.236-0.414-0.53-0.311-0.649C153.468,30.075,153.779,30.171,154.05,30.409z"/>
	<path fill-rule="evenodd" clip-rule="evenodd" d="M154.025,32.733c0,0-0.354-0.298-0.227,0.083c0,0,0.775,2.116,0.961,2.923
		c0,0,0.463,1.857,0.711,0.457C155.47,36.197,155.726,35.584,154.025,32.733z"/>
	<path fill-rule="evenodd" clip-rule="evenodd" d="M153.427,35.045c0,0-0.371-0.432-0.293,0.057c0,0,0.523,2.725,0.59,3.745
		c0,0,0.191,2.348,0.775,0.693C154.5,39.54,154.931,38.849,153.427,35.045z"/>
	<path fill-rule="evenodd" clip-rule="evenodd" d="M152.263,40.092c0,0-0.037-0.187-0.096-0.033c0,0-0.301,0.878-0.447,1.187
		c0,0-0.334,0.715,0.109,0.329C151.83,41.575,152.07,41.446,152.263,40.092z"/>
	<path fill-rule="evenodd" clip-rule="evenodd" d="M144.441,45.412c0,0-0.859-0.384,0.217-0.447c0,0,4.775,0.4,5.945-1.438
		c0,0,0.982-1.553,0.449,0.141C151.052,43.668,150.814,45.92,144.441,45.412z"/>
	<ellipse transform="matrix(0.9387 -0.3448 0.3448 0.9387 -20.5535 9.6537)" cx="16.86" cy="62.603" rx="0.456" ry="0.402"/>
	<path d="M17.123,59.383c-0.026,0.285-0.365,0.48-0.757,0.444c-0.391-0.035-0.687-0.294-0.661-0.575
		c0.028-0.283,0.366-0.48,0.757-0.441C16.854,58.846,17.149,59.102,17.123,59.383z"/>
	
		<ellipse transform="matrix(0.9959 0.0902 -0.0902 0.9959 6.7448 -3.9006)" fill-rule="evenodd" clip-rule="evenodd" cx="46.534" cy="72.683" rx="0.444" ry="0.221"/>
	<path fill-rule="evenodd" clip-rule="evenodd" d="M46.531,74.81c-0.01,0.142-0.386,0.228-0.833,0.189
		c-0.451-0.04-0.806-0.188-0.792-0.332c0.014-0.147,0.389-0.231,0.836-0.192C46.19,74.513,46.544,74.664,46.531,74.81z"/>
	<path fill-rule="evenodd" clip-rule="evenodd" d="M41.982,78.969c0,0,2.471-0.207,3.718-1.787c0,0,0.792-1.084-0.219-0.193
		c0,0-1.552,1.394-2.911,1.49C42.57,78.479,40.813,78.67,41.982,78.969z"/>
	<path fill-rule="evenodd" clip-rule="evenodd" d="M39.941,82.313c0,0,1.608-0.277,3.513-1.859c0.006,0.018,0.929-1.106-0.287-0.219
		c0,0-1.708,1.447-3.063,1.529C40.104,81.764,38.736,82.086,39.941,82.313z"/>
	<path fill-rule="evenodd" clip-rule="evenodd" d="M34.684,86.705c0,0-1.364-0.297,0.159-0.616c0,0,2.625-0.347,4.289-2.075
		c0,0,1.956-1.494,0.365,0.328C39.496,84.342,37.272,86.582,34.684,86.705z"/>
	
		<ellipse transform="matrix(0.9361 -0.3517 0.3517 0.9361 -22.4356 7.5585)" fill-rule="evenodd" clip-rule="evenodd" cx="9.586" cy="65.53" rx="0.18" ry="0.158"/>
	<path fill-rule="evenodd" clip-rule="evenodd" d="M8.386,63.761c0.037,0.269-0.028,0.498-0.146,0.513
		c-0.116,0.016-0.238-0.187-0.273-0.455c-0.038-0.271,0.029-0.498,0.145-0.513C8.227,63.289,8.349,63.494,8.386,63.761z"/>
	<path fill-rule="evenodd" clip-rule="evenodd" d="M7.109,61.559c0,0-0.568-2.464,0.034-3.767c0,0,0.868-1.494,0.438,0.273
		c0,0-0.568,2.525-0.255,3.414C7.325,61.479,7.51,62.549,7.109,61.559z"/>
	<path fill-rule="evenodd" clip-rule="evenodd" d="M6.036,57.574c0,0-0.262-2.739,0.685-4.105c0,0,1.301-1.549,0.479,0.342
		c0,0-1.116,2.701-0.889,3.7C6.312,57.511,6.349,58.698,6.036,57.574z"/>
	<path fill-rule="evenodd" clip-rule="evenodd" d="M5.375,54.018c0,0,0.263-2.746,1.449-3.903c0,0,1.568-1.275,0.405,0.423
		c0,0-1.606,2.445-1.571,3.469C5.658,54.006,5.472,55.179,5.375,54.018z"/>
	<path fill-rule="evenodd" clip-rule="evenodd" d="M8.561,47.195c0,0,2.26-3.267,6.221-3.441c0,0,1.684,0.306-0.153,0.762
		c0,0-3.518,0.152-5.568,2.654C9.062,47.17,8.241,48.256,8.561,47.195z"/>
	<path fill-rule="evenodd" clip-rule="evenodd" d="M142.365,18.407c-0.533,0.001-0.971,0.536-0.969,1.2
		c0.002,0.662,0.436,1.196,0.973,1.199c0.537-0.003,0.971-0.539,0.971-1.202C143.339,18.943,142.904,18.405,142.365,18.407z
		 M142.726,19.613c0,0.267-0.15,0.484-0.332,0.486c-0.186-0.003-0.334-0.22-0.334-0.486c0-0.267,0.15-0.485,0.332-0.483
		C142.578,19.128,142.726,19.346,142.726,19.613z"/>
</g>
</svg>
